<svg width="71" height="57" viewBox="0 0 71 57" fill="none" xmlns="http://www.w3.org/2000/svg">
<path d="M33.5008 2.53858C33.5009 2.5204 33.5087 2.50655 33.5475 2.48686C33.5824 2.46317 33.594 2.44966 33.6056 2.43614C33.6056 2.43614 33.6053 2.43962 33.6221 2.43662C33.6997 2.34165 33.7606 2.24968 33.8214 2.15771C33.8214 2.15771 33.8274 2.14005 33.8445 2.1396C33.874 2.13333 33.8771 2.1243 33.8708 2.11206C33.8708 2.11206 33.8739 2.09386 33.8989 2.09345C33.9568 2.0535 33.9896 2.01395 34.0366 1.9652C34.0749 1.90757 34.0991 1.85914 34.1232 1.81072C34.1232 1.79298 34.1308 1.77954 34.1764 1.76495C34.2476 1.69114 34.2884 1.62279 34.3293 1.55444C34.3293 1.55444 34.3305 1.55811 34.347 1.55499C34.4557 1.41417 34.5479 1.27647 34.6401 1.13876C34.6401 1.13876 34.641 1.14249 34.6573 1.13952C34.7225 1.09297 34.7853 1.05786 34.8183 1.00441C35.023 0.673165 35.221 0.337804 35.4421 0.00368022C35.6279 -0.0224104 35.6614 0.0947806 35.7317 0.211122C35.9248 0.530868 36.1473 0.832841 36.3581 1.14185C36.3581 1.14185 36.3551 1.14399 36.3562 1.16173C36.5662 1.48958 36.7523 1.81846 36.9896 2.10501C37.2837 2.46024 37.6149 2.78569 37.9419 3.11226C38.0317 3.20192 38.1634 3.24958 38.2759 3.31651C38.6145 3.63133 38.9327 3.97236 39.296 4.25564C40.1117 4.89178 40.9286 5.53043 41.7837 6.11105C43.0593 6.97713 44.4534 7.61362 45.8989 8.15401C47.3725 8.70494 48.8877 9.10385 50.4084 9.48195C51.3696 9.72093 52.3505 9.88391 53.3268 10.0572C53.7934 10.1401 54.27 10.1661 54.7416 10.2218C54.8317 10.2324 54.9197 10.2614 55.0045 10.2809C55.0119 10.3052 55.0208 10.3212 55.0212 10.3375C55.0363 10.9652 55.0482 10.8344 54.5412 10.8382C53.7464 10.8442 52.9511 10.8561 52.1566 10.8395C51.3349 10.8223 50.513 10.7876 49.6928 10.7353C49.0676 10.6954 48.445 10.6159 47.7581 10.5477C47.4184 11.4014 47.0445 12.2593 46.7345 13.1396C46.2551 14.5005 45.8955 15.8962 45.6341 17.3167C45.5064 18.0108 45.3454 18.699 45.2308 19.3951C45.1495 19.889 45.1174 20.3912 45.0689 20.8903C44.9972 21.6278 44.9206 22.3651 44.865 23.1039C44.8288 23.5841 44.8255 24.0669 44.8091 24.5486C44.8077 24.5909 44.8018 24.655 44.8253 24.6728C45.1725 24.935 45.055 25.3342 45.1137 25.6745C45.2043 26.2001 45.2586 26.7322 45.3191 27.2626C45.3681 27.6914 45.4035 28.1217 45.4464 28.5668C44.1547 28.5668 42.8957 28.5668 41.596 28.5668C41.6149 28.2747 41.6231 27.9734 41.6561 27.6749C41.713 27.1615 41.7863 26.6499 41.8508 26.1373C41.9048 25.709 41.9539 25.2801 42.0121 24.8524C42.0176 24.8121 42.0729 24.7467 42.1049 24.7468C42.347 24.7476 42.3192 24.5837 42.3186 24.426C42.3164 23.8816 42.3072 23.3367 42.3255 22.7929C42.3311 22.6258 42.2629 22.5366 42.1423 22.4731C41.5372 22.1548 40.9233 21.8879 40.2208 21.8261C39.3263 21.7473 38.4696 21.8851 37.6257 22.1437C36.9297 22.357 36.2479 22.6169 35.5509 22.8266C34.6205 23.1064 33.6759 23.3317 32.7011 23.3912C32.0095 23.4334 31.3165 23.4961 30.6249 23.4869C29.998 23.4787 29.3721 23.3856 28.732 23.3286C28.732 23.6931 28.7257 24.0808 28.737 24.4678C28.7395 24.5517 28.796 24.6988 28.844 24.706C29.1308 24.7485 29.0626 24.9944 29.0831 25.1441C29.2222 26.1634 29.3372 27.1861 29.4562 28.2082C29.4691 28.3189 29.4579 28.4325 29.4579 28.5621C28.1874 28.5621 26.9213 28.5621 25.615 28.5621C25.6345 28.3278 25.648 28.0863 25.6761 27.8465C25.7403 27.2989 25.8132 26.7524 25.8795 26.2051C25.9334 25.7593 25.981 25.3128 26.0371 24.8673C26.0426 24.8233 26.0875 24.7489 26.1143 24.7487C26.3186 24.7477 26.2961 24.6083 26.2931 24.4326C26.3102 24.1392 26.3543 23.8894 26.3406 23.6428C26.3038 22.9832 26.2547 22.3238 26.1874 21.6666C26.0966 20.78 25.9977 19.8938 25.8761 19.011C25.7978 18.4425 25.6853 17.8777 25.5647 17.3163C25.4421 16.7454 25.2909 16.1806 25.1522 15.5922C24.9578 14.2777 23.5277 10.5957 23.1898 10.5191C23.2033 10.5409 23.2169 10.5627 23.2304 10.5845C22.604 10.6352 21.9781 10.6947 21.351 10.734C20.8553 10.7651 20.3581 10.7786 19.8614 10.7875C18.6569 10.8089 17.4523 10.8224 16.2478 10.8407C16.084 10.8432 15.9334 10.8432 15.9216 10.6186C15.9076 10.3545 15.9811 10.2551 16.2171 10.2185C17.5477 10.0125 18.8838 9.83545 20.2061 9.58519C21.0911 9.4177 21.9646 9.17304 22.8278 8.9117C23.7368 8.63647 24.6309 8.31012 25.5244 7.98638C25.9315 7.83884 26.3215 7.64386 26.7517 7.47991C27.0197 7.40116 27.2678 7.337 27.4884 7.22064C28.6704 6.59711 29.7909 5.87377 30.8627 5.07658C31.0351 4.94831 31.1694 4.76877 31.3214 4.61294C31.3214 4.61294 31.3226 4.6166 31.3399 4.61645C31.6252 4.48554 31.8926 4.3541 31.9973 4.04146C32.0208 4.01166 32.0442 3.98187 32.096 3.94426C32.137 3.91329 32.1497 3.89014 32.1624 3.86698C32.1624 3.86698 32.1654 3.85307 32.1907 3.85539C32.4125 3.8308 32.5214 3.71157 32.5667 3.52518C32.5667 3.52518 32.5681 3.5286 32.5854 3.52791C32.7936 3.36376 32.9988 3.21385 33.1703 3.03211C33.2872 2.90822 33.357 2.73983 33.4478 2.59133C33.4478 2.59133 33.4485 2.59527 33.4576 2.58773C33.4781 2.56632 33.4894 2.55245 33.5008 2.53858ZM30.8802 21.5765C31.513 21.4806 32.1525 21.4163 32.7771 21.2822C33.9976 21.0203 35.1459 20.5441 36.2949 20.062C37.5569 19.5324 38.8713 19.1916 40.2599 19.4048C40.7291 19.4768 41.1911 19.6101 41.648 19.7442C41.9394 19.8297 42.2153 19.968 42.5078 20.0865C43.0331 16.6593 43.7216 13.3046 45.2686 10.1866C41.6784 9.406 38.3224 8.09841 35.4292 5.78386C32.5413 8.07879 29.2919 9.46596 25.7494 10.1562C25.9546 10.59 26.1573 11.0038 26.3473 11.4233C26.8744 12.5874 27.2172 13.8143 27.5325 15.0465C27.7574 15.9251 27.9317 16.8174 28.1056 17.708C28.2304 18.3481 28.3237 18.9946 28.419 19.64C28.4983 20.1766 28.5539 20.7168 28.6361 21.2529C28.6484 21.3328 28.7415 21.4527 28.8106 21.4629C29.279 21.5319 29.7502 21.5878 30.2223 21.6232C30.4229 21.6382 30.6281 21.5936 30.8802 21.5765Z" fill="#9C0000"/>
<path d="M6.79776 34.8984C7.01306 34.9981 7.09361 35.286 6.94329 35.4555C6.87112 35.5369 6.78265 35.6208 6.68429 35.6587C6.40423 35.7668 6.38624 35.9827 6.44026 36.2177C6.83553 37.937 7.23675 39.655 7.63811 41.3729C7.64299 41.3938 7.6744 41.4085 7.70615 41.4378C7.9549 40.8196 8.20272 40.2079 8.44734 39.5949C8.86589 38.546 9.27842 37.4947 9.70161 36.4477C9.89891 35.9596 10.1081 35.4758 10.3288 34.9979C10.3754 34.897 10.4965 34.7657 10.5827 34.7661C10.6689 34.7665 10.7915 34.8988 10.834 35.0002C11.0143 35.4303 11.1702 35.8707 11.3362 36.3069C11.7822 37.4784 12.2272 38.6502 12.6759 39.8205C12.8508 40.2766 13.0347 40.7293 13.2312 41.2256C13.4185 40.5423 13.5872 39.8992 13.7716 39.2607C14.0689 38.2319 14.3752 37.2057 14.6807 36.1793C14.7779 35.853 14.7653 35.8122 14.4753 35.6851C14.399 35.6517 14.3177 35.6281 14.2448 35.5887C14.0935 35.5069 13.9127 35.4135 13.962 35.2134C14.0125 35.0084 14.163 34.8502 14.4001 34.8549C14.8019 34.8629 15.2033 34.8998 15.6049 34.9008C15.9548 34.9017 16.305 34.8539 16.6544 34.8603C16.7915 34.8628 16.9584 34.9204 17.0567 35.012C17.2586 35.1999 17.2157 35.4992 16.9101 35.5731C16.2937 35.7223 16.189 36.2227 16.0355 36.678C15.437 38.4527 14.8654 40.2364 14.2835 42.0166C14.0993 42.5803 13.9141 43.1436 13.6996 43.7103C13.5928 43.8798 13.5228 44.0497 13.4365 44.2108C13.3606 44.3526 13.2845 44.5016 13.1758 44.6166C13.0312 44.7696 12.8811 44.7353 12.7851 44.5449C12.7154 44.4066 12.6606 44.2603 12.6059 44.1151C12.2445 43.156 11.8847 42.1964 11.5249 41.2368C11.2529 40.5115 10.9826 39.7857 10.7098 39.0607C10.5935 38.7517 10.4729 38.4443 10.3306 38.0749C10.2498 38.1983 10.1986 38.2549 10.1714 38.3213C9.92667 38.9195 9.68336 39.5183 9.44715 40.1198C9.40637 40.2237 9.40097 40.3415 9.37922 40.4528C9.28153 40.7179 9.18385 40.983 9.06091 41.2712C8.91233 41.555 8.77853 41.8115 8.6699 42.0781C8.61209 42.22 8.59782 42.3797 8.5639 42.5313C8.56198 42.5397 8.56005 42.5482 8.54545 42.577C8.52277 42.6096 8.51477 42.623 8.50878 42.6376C8.50878 42.6376 8.50823 42.6339 8.49226 42.6388C8.3947 42.8204 8.30901 42.9955 8.23233 43.1745C8.03556 43.6337 7.84974 44.0979 7.64223 44.5522C7.60334 44.6373 7.48042 44.7413 7.40296 44.7362C7.31899 44.7306 7.23546 44.6138 7.16629 44.5331C7.12978 44.4905 7.12327 44.4217 7.1049 44.3641C6.84296 43.5438 6.57445 42.7254 6.3214 41.9023C6.03831 40.9814 5.7724 40.0553 5.49328 39.1333C5.20863 38.1929 4.92304 37.2528 4.62192 36.3177C4.5772 36.1788 4.44485 36.0682 4.35305 35.9445C4.35305 35.9445 4.35657 35.9431 4.35337 35.9272C4.29899 35.8707 4.24781 35.8301 4.19662 35.7895C4.19662 35.7895 4.20059 35.7894 4.19185 35.775C3.99736 35.7016 3.81161 35.6425 3.62586 35.5835C3.62586 35.5835 3.63022 35.5813 3.62546 35.5649C3.47933 35.2897 3.61628 34.9739 3.90552 34.9659C4.4115 34.9521 4.91867 34.9779 5.42524 34.9908C5.88583 35.0025 6.34981 35.0716 6.79776 34.8984Z" fill="#9C0000"/>
<path d="M28.4232 52.9477C28.4403 53.3509 28.4687 53.7541 28.4709 54.1574C28.4724 54.4545 28.4402 54.7519 28.422 55.049C28.4054 55.3212 28.395 55.594 28.368 55.8651C28.3408 56.1388 28.1057 56.2569 27.8409 56.1295C27.729 56.0758 27.6175 56.0067 27.5294 55.9205C27.0881 55.4883 26.6551 55.0477 26.2182 54.611C25.0134 53.4066 23.8071 52.2037 22.6035 50.998C22.1276 50.5213 21.6574 50.0389 21.1615 49.5356C21.1615 49.6899 21.1583 49.8464 21.162 50.0029C21.1781 50.6901 21.1978 51.3772 21.2131 52.0645C21.2322 52.916 21.2465 53.7677 21.2677 54.6191C21.2706 54.7361 21.2964 54.8533 21.3201 54.9686C21.3646 55.1857 21.484 55.3043 21.7239 55.2892C21.8386 55.282 21.9761 55.2823 22.0671 55.3382C22.1978 55.4184 22.3435 55.5338 22.3956 55.668C22.4709 55.862 22.2954 56.0051 22.1407 56.0555C21.9425 56.12 21.721 56.1171 21.5087 56.1316C21.3985 56.1392 21.2865 56.1149 21.1755 56.1169C20.6097 56.1268 20.0439 56.1394 19.4782 56.1538C19.2026 56.1608 18.9309 56.1298 18.7288 55.9298C18.6438 55.8456 18.5591 55.6737 18.5908 55.5819C18.627 55.477 18.7831 55.3903 18.9053 55.3446C19.0371 55.2954 19.1898 55.3009 19.3337 55.2863C19.631 55.2562 19.7063 55.1751 19.7076 54.8648C19.7103 54.1822 19.7074 53.4996 19.7124 52.8171C19.7264 50.9324 19.7417 49.0477 19.7611 47.1631C19.7634 46.9423 19.7877 46.7211 19.8136 46.5014C19.8456 46.2309 20.1766 46.0761 20.396 46.2608C20.7911 46.5934 21.1622 46.9561 21.5268 47.3228C22.036 47.8351 22.5293 48.3633 23.0308 48.8834C23.5413 49.4129 24.0526 49.9415 24.5651 50.469C24.7217 50.6301 24.8853 50.7843 25.0421 50.9452C25.655 51.5742 26.267 52.204 26.8773 52.8354C26.9404 52.9007 26.99 52.9788 27.0868 53.1039C27.0809 52.9689 27.0751 52.8926 27.0746 52.8163C27.0729 52.557 27.0758 52.2977 27.072 52.0385C27.0558 50.9192 27.0454 49.7997 27.0165 48.6807C27.0053 48.2471 26.957 47.8141 26.9142 47.3819C26.8864 47.1022 26.6447 47.13 26.4556 47.0944C26.3061 47.0662 26.15 47.0653 26.0049 47.0242C25.8398 46.9775 25.7447 46.8421 25.7861 46.675C25.8296 46.4998 25.8843 46.3101 26.1373 46.3118C26.8545 46.3169 27.5717 46.3177 28.2888 46.3111C28.5181 46.309 28.7469 46.2696 28.9764 46.2637C29.2652 46.2562 29.4361 46.3734 29.4484 46.5653C29.4621 46.7773 29.2353 47.0503 29.0115 47.0924C28.9211 47.1093 28.8144 47.1042 28.7451 47.1524C28.6564 47.2142 28.5482 47.313 28.5356 47.4075C28.494 47.7199 28.4792 48.0375 28.4764 48.3532C28.469 49.2087 28.4746 50.0642 28.4706 50.9197C28.4701 51.0099 28.4405 51.0999 28.4155 51.2322C28.394 51.7428 28.3783 52.2111 28.3716 52.6796C28.3704 52.7687 28.4051 52.8583 28.4232 52.9477Z" fill="#9C0000"/>
<path d="M50.1524 39.5657C50.4437 39.8859 50.7288 40.212 51.0278 40.5248C51.4036 40.9179 51.7907 41.3001 52.2167 41.7312C52.2167 41.298 52.2195 40.9182 52.2146 40.5384C52.2135 40.447 52.1745 40.356 52.1741 40.2647C52.1711 39.4705 52.1861 38.6759 52.1689 37.8821C52.1552 37.2513 52.11 36.6209 52.0649 35.9913C52.0525 35.8174 51.9278 35.7375 51.7458 35.7321C51.552 35.7263 51.3494 35.7248 51.1694 35.6649C51.069 35.6315 50.936 35.4775 50.9433 35.388C50.9554 35.2392 51.0334 35.0253 51.1469 34.9711C51.3412 34.8782 51.5838 34.8623 51.8069 34.8584C52.5304 34.8459 53.2544 34.8505 53.9781 34.8556C54.1372 34.8567 54.3049 34.8605 54.4531 34.9098C54.6375 34.9711 54.7307 35.1536 54.6525 35.3209C54.585 35.4651 54.4304 35.578 54.2942 35.6769C54.2191 35.7315 54.1023 35.7284 54.0045 35.7522C53.7597 35.8116 53.6734 35.9708 53.6743 36.2175C53.6802 37.8405 53.6834 39.4636 53.6762 41.0867C53.6729 41.8336 53.6461 42.5805 53.6248 43.3273C53.6215 43.4438 53.5909 43.5595 53.5545 43.6943C53.5129 43.7511 53.4756 43.7868 53.469 43.8275C53.4159 44.1564 53.3684 44.4863 53.3193 44.8159C53.3193 44.8159 53.3152 44.8106 53.296 44.8113C53.2186 44.8123 53.1604 44.8126 53.1022 44.8129C53.1022 44.8129 53.1057 44.8121 53.0974 44.7982C52.955 44.7074 52.8209 44.6305 52.6869 44.5537C52.6869 44.5537 52.6906 44.5525 52.6876 44.5364C52.6647 44.4831 52.6523 44.4385 52.6239 44.4098C52.1544 43.9365 51.6848 43.4632 51.2088 42.9965C51.1647 42.9532 51.077 42.9545 51.0095 42.9351C51.0095 42.9351 50.9933 42.9308 50.9984 42.9052C50.9345 42.6831 50.8375 42.5187 50.5946 42.5202C50.5946 42.5202 50.5766 42.5137 50.576 42.4967C50.5698 42.4677 50.5611 42.4648 50.5494 42.4711C50.5494 42.4711 50.5297 42.4666 50.5331 42.439C50.4695 42.3612 50.4024 42.311 50.3354 42.2609C50.3354 42.2609 50.3191 42.2567 50.3241 42.2308C50.2543 42.0748 50.2033 41.9205 50.1005 41.8187C49.6409 41.3637 49.1684 40.9217 48.6947 40.4813C48.6455 40.4356 48.5577 40.4312 48.4879 40.4077C48.0019 39.9099 47.5207 39.4074 47.0279 38.9165C46.7937 38.6831 46.5374 38.472 46.3128 38.2703C46.3128 38.9505 46.3126 39.6499 46.3129 40.3494C46.313 40.5553 46.3151 40.7613 46.3151 40.9672C46.3148 41.7105 46.3105 42.4538 46.3159 43.1971C46.3172 43.3739 46.3292 43.5562 46.3747 43.7257C46.4274 43.9221 46.5438 44.0572 46.7913 44.0372C47.0049 44.0199 47.2164 43.9941 47.4037 44.1995C47.6227 44.4396 47.4724 44.7437 47.2276 44.7989C46.9723 44.8564 46.701 44.8543 46.4364 44.8571C45.8389 44.8635 45.2411 44.8485 44.6437 44.8586C44.2967 44.8645 43.9553 44.8915 43.7121 44.5698C43.5751 44.3884 43.6008 44.226 43.8086 44.1437C43.9471 44.0889 44.0974 44.0516 44.2456 44.0354C44.7384 43.9815 44.7924 43.9647 44.8018 43.4512C44.8226 42.302 44.8156 41.1521 44.8068 40.0027C44.7985 38.9185 44.7596 37.8344 44.7617 36.7503C44.7627 36.214 44.8252 35.6777 44.8607 35.1415C44.8837 34.7932 45.1483 34.6648 45.4354 34.8923C45.7821 35.167 46.1022 35.4758 46.4287 35.7754C46.6003 35.9329 46.761 36.1023 46.9331 36.3005C46.9741 36.3759 47.0086 36.417 47.0431 36.4582C47.0431 36.4582 47.0399 36.4598 47.0458 36.4684C47.0598 36.4904 47.0698 36.5021 47.0819 36.512C47.0819 36.512 47.0905 36.5337 47.0991 36.5568C47.1216 36.5916 47.1355 36.6033 47.1494 36.6151C47.1494 36.6151 47.144 36.6151 47.1517 36.6237C47.1733 36.6439 47.1872 36.6554 47.2012 36.6669C47.2012 36.6669 47.1958 36.667 47.2035 36.6756C47.2251 36.6958 47.239 36.7073 47.253 36.7189C47.253 36.7189 47.2488 36.7184 47.2514 36.7343C47.4295 36.9608 47.5901 37.1861 47.7833 37.379C48.3447 37.9396 48.9179 38.4885 49.4903 39.038C49.5618 39.1067 49.6566 39.1512 49.7405 39.2069C49.7405 39.2069 49.737 39.2077 49.7444 39.2169C49.7655 39.2374 49.7792 39.2487 49.7928 39.26C49.7928 39.26 49.7887 39.2601 49.7963 39.269C49.8174 39.2892 49.8309 39.3005 49.8445 39.3117C49.8445 39.3117 49.841 39.3119 49.8451 39.3272C49.9503 39.4168 50.0513 39.4912 50.1524 39.5657Z" fill="#9C0000"/>
<path d="M35.2299 56.1697C34.9677 56.1877 34.7297 56.2201 34.4922 56.2168C34.1765 56.2124 33.8614 56.1685 33.5456 56.1619C32.5646 56.1414 31.5834 56.1316 30.6023 56.1141C30.5195 56.1126 30.4321 56.0967 30.3556 56.0657C30.1797 55.9944 29.9991 55.9137 30.0294 55.6727C30.0488 55.518 30.3276 55.2991 30.507 55.2846C30.9971 55.2453 31.0571 55.1779 31.0656 54.6783C31.0809 53.7837 31.1021 52.8893 31.1152 51.9947C31.1355 50.616 31.1524 49.2372 31.1663 47.8584C31.1675 47.7425 31.1206 47.626 31.1213 47.51C31.1231 47.1988 30.8906 47.1534 30.6689 47.0953C30.6203 47.0826 30.5656 47.0936 30.5138 47.0932C30.2246 47.0909 29.9894 46.9471 29.9788 46.7662C29.9679 46.5804 30.2535 46.2653 30.4779 46.2676C30.9133 46.272 31.3481 46.3136 31.7835 46.3327C32.135 46.348 32.4869 46.3576 32.8387 46.3597C32.9555 46.3603 33.0723 46.3163 33.1893 46.3156C33.8893 46.3114 34.5902 46.2916 35.2892 46.3192C36.4257 46.364 37.4364 46.7693 38.3741 47.4112C38.9558 47.8093 39.3512 48.3499 39.6595 48.9464C39.9582 49.5244 40.1208 50.1585 40.2037 50.8166C40.2831 51.4464 40.2364 52.0549 40.035 52.6431C39.5123 54.1698 38.4664 55.2043 36.9783 55.8079C36.4241 56.0326 35.8575 56.1848 35.2299 56.1697ZM32.933 52.8754C32.9504 53.4758 32.9561 54.077 32.9962 54.676C33.0032 54.78 33.146 54.9475 33.2429 54.9606C33.7049 55.0229 34.1725 55.0661 34.6387 55.0718C35.7647 55.0853 36.7241 54.7144 37.4759 53.8349C38.2436 52.9367 38.4405 51.9101 38.2505 50.7803C38.1608 50.2474 37.9528 49.7589 37.6629 49.3017C37.197 48.5671 36.588 48.0142 35.7611 47.7068C34.9271 47.3968 34.0737 47.3001 33.1927 47.402C33.0184 47.4222 32.9816 47.5107 32.9811 47.6731C32.9764 48.953 32.9635 50.2328 32.9517 51.5127C32.9476 51.9504 32.9393 52.3881 32.933 52.8754Z" fill="#9C0000"/>
<path d="M31.0654 43.4105C30.598 42.7633 30.1314 42.1357 29.6679 41.5057C29.564 41.3645 29.4721 41.2143 29.3729 41.0695C29.2235 40.8513 28.977 40.9111 28.7707 40.8763C28.5859 40.8451 28.3917 40.8697 28.1628 40.8697C28.1628 41.213 28.157 41.5545 28.1647 41.8957C28.1707 42.1679 28.1926 42.4398 28.2085 42.7118C28.2269 43.0276 28.26 43.3434 28.2604 43.6592C28.2607 43.8618 28.3868 43.9329 28.534 43.9735C28.6794 44.0137 28.8354 44.0195 28.9876 44.0301C29.2395 44.0477 29.445 44.2257 29.4595 44.449C29.4734 44.6624 29.3186 44.8555 29.0562 44.8893C28.8194 44.9198 28.5765 44.9049 28.3363 44.9064C27.7307 44.9104 27.1246 44.929 26.5198 44.908C26.2107 44.8973 25.9 44.8309 25.5978 44.7577C25.4089 44.7119 25.2672 44.5345 25.3237 44.3548C25.3813 44.1716 25.5318 44.0023 25.7848 44.0319C26.2514 44.0864 26.385 43.9799 26.3936 43.3997C26.4127 42.1125 26.4059 40.8248 26.397 39.5374C26.3898 38.4961 26.3659 37.4549 26.3445 36.4137C26.3414 36.2616 26.3444 36.0943 26.2827 35.9632C26.2352 35.8624 26.1003 35.7771 25.9863 35.7397C25.8365 35.6906 25.6628 35.7167 25.5109 35.6716C25.324 35.6161 25.1025 35.5632 25.1035 35.2993C25.1042 35.1036 25.3963 34.85 25.6214 34.8551C25.9372 34.8621 26.2528 34.9044 26.5681 34.9014C27.2467 34.895 27.9252 34.8531 28.6036 34.8555C29.5306 34.8587 30.4025 35.0836 31.1636 35.6324C31.7173 36.0315 32.0156 36.5924 32.1054 37.2678C32.2383 38.2675 31.7828 39.0344 31.1417 39.7306C30.9797 39.9065 30.8241 40.0883 30.6645 40.2686C31.2965 40.9748 31.9431 41.6745 32.5625 42.3974C32.9937 42.9007 33.4074 43.4188 33.9899 43.7555C34.1494 43.8478 34.3469 43.8782 34.53 43.9252C34.7619 43.9848 35.0117 43.999 35.2263 44.0945C35.4301 44.1851 35.411 44.4098 35.2395 44.5642C34.9595 44.8165 34.6241 44.8941 34.2619 44.9158C33.3778 44.9689 32.5546 44.7865 31.8516 44.2337C31.5597 44.0042 31.327 43.6996 31.0654 43.4105ZM30.1608 36.9829C29.8114 36.1349 29.0592 35.8372 28.1977 35.9628C28.1977 37.1634 28.1977 38.3609 28.1977 39.624C28.5534 39.624 28.8681 39.6409 29.1801 39.6191C29.4715 39.5987 29.7883 39.5911 29.9631 39.2916C30.3849 38.569 30.5251 37.8158 30.1608 36.9829Z" fill="#9C0000"/>
<path d="M59.5922 54.8215C59.5744 55.1433 59.5598 55.4654 59.5378 55.787C59.5145 56.1288 59.2642 56.2882 58.9851 56.0925C58.6149 55.833 58.2869 55.5133 57.9273 55.1922C57.8997 55.1539 57.8857 55.1431 57.8716 55.1322C57.8716 55.1322 57.8754 55.1322 57.873 55.116C57.7792 55.0214 57.6878 54.943 57.5963 54.8645C57.5963 54.8645 57.5795 54.8595 57.5804 54.8345C57.5342 54.7754 57.4871 54.7413 57.44 54.7072C57.44 54.7072 57.4218 54.6997 57.4214 54.683C57.4156 54.6546 57.4074 54.6522 57.3964 54.6589C57.3964 54.6589 57.3768 54.6545 57.3755 54.6299C57.3443 54.5876 57.3144 54.5699 57.2845 54.5521C57.2845 54.5521 57.2688 54.5478 57.2695 54.5246C57.2404 54.4836 57.2107 54.4658 57.1809 54.4479C57.1809 54.4479 57.166 54.4447 57.1643 54.423C57.1402 54.3858 57.1177 54.3704 57.0951 54.3551C57.0951 54.3551 57.0988 54.354 57.096 54.3379C57.0362 54.278 56.9791 54.234 56.9221 54.1901C56.9221 54.1901 56.9056 54.1856 56.9065 54.1602C56.6088 53.8245 56.3107 53.5137 56.01 53.2055C55.9976 53.1927 55.961 53.2035 55.9357 53.2033C55.9357 53.2033 55.9174 53.1955 55.917 53.1787C55.9113 53.1501 55.903 53.1476 55.892 53.1542C55.892 53.1542 55.8704 53.1472 55.868 53.1285C55.8597 53.0972 55.8505 53.094 55.838 53.0999C55.838 53.0999 55.819 53.0946 55.8171 53.0767C55.8091 53.046 55.7995 53.0425 55.7865 53.0484C55.7865 53.0484 55.7687 53.0448 55.7718 53.0179C55.725 52.9576 55.675 52.9242 55.625 52.8908C55.625 52.8908 55.6107 52.8878 55.6116 52.8627C55.5474 52.7862 55.4824 52.7347 55.4173 52.6832C55.4173 52.6832 55.4006 52.6772 55.4002 52.6605C55.3938 52.6311 55.3846 52.6279 55.3721 52.6342C55.3721 52.6342 55.354 52.6304 55.3554 52.6052C55.3251 52.5627 55.2934 52.5454 55.2618 52.5282C55.2618 52.5282 55.2472 52.5249 55.2482 52.4997C55.1983 52.3684 55.1849 52.2174 55.0027 52.2684C55.0027 52.2684 54.9859 52.2625 54.9854 52.2457C54.9789 52.2162 54.9696 52.213 54.9571 52.2192C54.9571 52.2192 54.9369 52.2132 54.9349 52.1952C54.9272 52.1647 54.9181 52.1617 54.9059 52.1681C54.9059 52.1681 54.8878 52.1647 54.8879 52.1381C54.8448 51.9592 54.7924 51.8176 54.5876 51.8534C54.5876 51.8534 54.5712 51.8477 54.5706 51.8308C54.564 51.801 54.5545 51.7976 54.5416 51.8036C54.5416 51.8036 54.522 51.798 54.5203 51.7805C54.5129 51.7506 54.504 51.7478 54.4921 51.7546C54.4921 51.7546 54.4725 51.7503 54.4712 51.7257C54.4401 51.6832 54.4103 51.6652 54.3804 51.6473C54.3804 51.6473 54.3623 51.64 54.3618 51.6231C54.3558 51.5943 54.3474 51.5917 54.336 51.5984C54.336 51.5984 54.3144 51.5913 54.3121 51.5729C54.3042 51.5422 54.2954 51.5393 54.2834 51.5457C54.2834 51.5457 54.2627 51.5392 54.2606 51.521C54.2527 51.4904 54.2437 51.4873 54.2314 51.4937C54.2314 51.4937 54.2108 51.4873 54.2087 51.4691C54.2008 51.4386 54.1918 51.4355 54.1796 51.4418C54.1796 51.4418 54.1589 51.4354 54.1568 51.4173C54.149 51.3867 54.14 51.3837 54.1278 51.39C54.1278 51.39 54.1097 51.3864 54.1088 51.3623C54.0776 51.32 54.0473 51.3018 54.0171 51.2835C54.0171 51.2835 54 51.2772 53.9994 51.2601C53.9929 51.2302 53.9836 51.2269 53.9708 51.2329C53.9708 51.2329 53.9543 51.2302 53.9537 51.2067C53.9225 51.1648 53.892 51.1465 53.8616 51.1282C53.8616 51.1282 53.8441 51.1215 53.8436 51.1047C53.8374 51.0757 53.8286 51.0728 53.8167 51.0793C53.8167 51.0793 53.7984 51.0757 53.7986 51.0527C53.7573 50.9986 53.7159 50.9674 53.6745 50.9363C53.2546 50.4922 52.8347 50.0481 52.4149 49.604C52.3865 49.6203 52.3582 49.6366 52.3298 49.6529C52.3298 49.8799 52.3298 50.1069 52.3298 50.3339C52.3296 50.8349 52.3234 51.336 52.3306 51.8369C52.3432 52.7223 52.3615 53.6075 52.3837 54.4927C52.3879 54.6615 52.4096 54.8319 52.444 54.9972C52.4838 55.1879 52.5783 55.3234 52.8135 55.2889C52.9222 55.2729 53.0411 55.2759 53.1473 55.3025C53.4662 55.3822 53.6068 55.5462 53.5743 55.7722C53.5395 56.0139 53.2806 56.176 52.9766 56.1657C52.3419 56.1443 51.707 56.1263 51.072 56.1189C50.835 56.1162 50.5921 56.184 50.362 56.1503C50.1794 56.1237 49.9931 56.0151 49.8461 55.8963C49.7679 55.8331 49.7049 55.6236 49.7489 55.5633C49.8382 55.441 49.9994 55.3643 50.1424 55.2911C50.2045 55.2593 50.2972 55.2942 50.3721 55.279C50.8155 55.1893 50.9589 54.9469 50.9265 54.4004C50.8996 53.9487 50.8843 53.4958 50.8778 53.0433C50.8565 51.5619 50.829 50.0805 50.83 48.5991C50.8304 47.941 50.8833 47.2823 50.9307 46.6251C50.9644 46.1576 51.2012 46.0827 51.648 46.407C51.6716 46.4449 51.692 46.4564 51.7124 46.468C51.7308 46.4682 51.7447 46.4761 51.7645 46.5148C51.788 46.5493 51.8011 46.5607 51.8143 46.5722C51.8143 46.5722 51.811 46.5731 51.8156 46.5885C52.2681 47.0882 52.7071 47.581 53.1661 48.0544C53.7473 48.6539 54.3433 49.2391 54.9371 49.8263C55.007 49.8955 55.1029 49.9385 55.1868 49.9936C55.1868 49.9936 55.1825 49.9946 55.1899 50.0037C55.2113 50.0243 55.2253 50.0359 55.2392 50.0475C55.2392 50.0475 55.2336 50.0476 55.2415 50.0561C55.2632 50.0761 55.2772 50.0877 55.2911 50.0992C55.2911 50.0992 55.2856 50.0993 55.2934 50.1078C55.3151 50.1279 55.329 50.1394 55.3429 50.151C55.3429 50.151 55.3375 50.1511 55.3453 50.1596C55.3669 50.1797 55.3807 50.1913 55.3945 50.2028C55.3945 50.2028 55.3898 50.2025 55.3952 50.2117C55.4319 50.2307 55.4631 50.2406 55.4944 50.2505C56.0326 50.814 56.565 51.3833 57.1112 51.939C57.4574 52.2913 57.8241 52.6234 58.2053 52.9881C58.2465 53.0211 58.2639 53.0304 58.2814 53.0398C58.2694 53.0093 58.2573 52.9789 58.2453 52.9484C58.2376 52.3236 58.2318 51.6989 58.2215 51.0742C58.2132 50.5624 58.2008 50.0507 58.188 49.539C58.1723 48.9127 58.1573 48.2864 58.1363 47.6603C58.1204 47.1868 58.023 47.1034 57.5351 47.0905C57.4108 47.0872 57.273 47.0756 57.1678 47.0188C57.054 46.9575 56.8677 46.8857 56.9498 46.7021C57.0128 46.5614 57.1119 46.4016 57.2392 46.3351C57.3612 46.2714 57.5403 46.3152 57.6943 46.3147C58.1259 46.3134 58.5577 46.3203 58.9891 46.3113C59.339 46.3039 59.6886 46.2795 60.0382 46.2603C60.4071 46.24 60.6028 46.3243 60.628 46.5182C60.6668 46.8171 60.4605 47.0432 60.0645 47.0892C59.9324 47.065 59.8172 47.0006 59.7487 47.0335C59.5128 47.1467 59.3475 47.3409 59.3338 47.6136C59.3065 48.1553 59.2744 48.6981 59.2822 49.2398C59.306 50.8853 59.3446 52.5306 59.3889 54.1756C59.3924 54.3046 59.4852 54.4313 59.5369 54.5594C59.5374 54.5599 59.5384 54.5605 59.5386 54.5799C59.5565 54.6734 59.5744 54.7474 59.5922 54.8215Z" fill="#9C0000"/>
<path d="M6.57515 48.1165C5.79295 48.9667 5.0237 49.8038 4.23421 50.663C4.33557 50.7867 4.42881 50.9136 4.53539 51.0281C4.84681 51.3627 5.15264 51.7036 5.48065 52.0213C6.02197 52.5458 6.57807 53.055 7.1296 53.5688C7.58411 53.9923 8.02795 54.4286 8.5017 54.8294C8.79166 55.0748 9.09396 55.3431 9.52954 55.2881C9.56817 55.2832 9.61913 55.2951 9.64936 55.3186C9.77215 55.4139 9.94449 55.4981 9.98698 55.624C10.0116 55.6971 9.84336 55.869 9.72886 55.9494C9.24851 56.2869 8.69212 56.2588 8.15222 56.1994C7.41512 56.1184 6.78246 55.7803 6.27093 55.2473C5.63044 54.5798 5.01036 53.8928 4.38382 53.212C4.03147 52.8291 3.68377 52.442 3.33418 52.0566C3.21667 51.9271 3.09979 51.797 3.00943 51.6968C3.00943 52.4929 3.00508 53.3065 3.01181 54.12C3.01415 54.4018 3.03944 54.6837 3.06279 54.9648C3.07996 55.1715 3.16272 55.3055 3.41002 55.2902C3.56765 55.2804 3.73072 55.309 3.88715 55.341C4.11606 55.3878 4.26953 55.5126 4.25579 55.774C4.24564 55.9672 4.06505 56.1617 3.83198 56.1618C3.31001 56.162 2.78809 56.1245 2.26603 56.1212C1.93384 56.1191 1.60123 56.167 1.2692 56.1626C0.965605 56.1586 0.654039 56.1472 0.363327 56.072C0.243079 56.0409 0.0856439 55.8288 0.0946503 55.7104C0.104447 55.5816 0.273449 55.4465 0.401049 55.3519C0.479643 55.2936 0.61007 55.2942 0.718214 55.2891C1.00946 55.2751 1.1371 55.1652 1.13979 54.8747C1.16076 52.6153 1.17932 50.3558 1.19312 48.0964C1.19452 47.8678 1.16075 47.6388 1.1411 47.4102C1.12428 47.2146 0.973218 47.1745 0.820213 47.1471C0.686671 47.1232 0.548795 47.1215 0.4165 47.0929C0.0870018 47.0219 0.0632906 46.9839 0.105699 46.6637C0.133775 46.4517 0.297722 46.3106 0.525822 46.3145C1.41196 46.3299 2.29804 46.3488 3.18416 46.3653C3.33007 46.368 3.4789 46.3474 3.62142 46.3695C3.86751 46.4077 3.97306 46.6066 3.86358 46.8312C3.77757 47.0077 3.66742 47.1551 3.42149 47.1514C3.0609 47.1459 2.9999 47.2303 3.00092 47.5856C3.00334 48.4275 3.0017 49.2694 3.0017 50.1166C3.01491 50.1107 3.07435 50.102 3.10567 50.0676C3.55531 49.5742 4 49.0762 4.44827 48.5815C4.80956 48.1828 5.17772 47.7902 5.53179 47.3852C5.56934 47.3423 5.55319 47.2263 5.52635 47.1583C5.46361 46.9994 5.30169 46.8383 5.32116 46.6976C5.35289 46.4684 5.5842 46.3206 5.80599 46.3229C6.37683 46.3289 6.94702 46.3848 7.51783 46.4137C7.74193 46.425 7.96705 46.4144 8.19156 46.4197C8.26511 46.4215 8.3622 46.4167 8.40686 46.4589C8.52193 46.5678 8.71643 46.7299 8.69172 46.8184C8.65052 46.966 8.4831 47.1159 8.33221 47.1861C8.12425 47.2828 7.88102 47.3016 7.65508 47.362C7.21123 47.4806 6.89802 47.7904 6.57515 48.1165Z" fill="#9C0000"/>
<path d="M57.8779 35.3271C58.2772 35.1854 58.6715 35.0266 59.0776 34.908C59.3578 34.8261 59.6526 34.7737 59.9438 34.7552C60.3388 34.7302 60.7377 34.7689 61.1331 34.7472C62.0112 34.699 62.8487 34.8915 63.6799 35.1367C63.76 35.1603 63.8419 35.1793 63.9196 35.2094C64.066 35.2663 64.2662 35.2925 64.3381 35.4014C64.4026 35.4991 64.3194 35.6905 64.3111 35.8411C64.2904 36.2172 64.2785 36.5939 64.2562 36.97C64.2457 37.1481 64.257 37.3417 64.1891 37.4982C64.1277 37.6397 63.9836 37.8157 63.8544 37.8355C63.7464 37.8521 63.5826 37.6838 63.4885 37.5625C63.3945 37.4413 63.3503 37.279 63.2948 37.1308C63.0828 36.5652 62.6436 36.2846 62.0952 36.0907C61.4459 35.8612 60.7815 35.7838 60.1111 35.848C59.2496 35.9304 58.4409 36.2038 57.831 36.8549C57.3492 37.3692 57.0882 38.0049 56.9955 38.7058C56.9611 38.9653 56.9088 39.2241 56.8971 39.4847C56.8522 40.4845 57.2463 41.3427 57.8189 42.1228C58.3341 42.8246 58.983 43.3979 59.8459 43.6038C60.7105 43.8102 61.5912 43.8233 62.4413 43.4283C62.4413 42.7075 62.4493 41.9821 62.4365 41.2569C62.4325 41.0323 62.3968 40.8001 62.3257 40.5882C62.2922 40.4884 62.1499 40.409 62.04 40.3551C61.9 40.2864 61.7285 40.2765 61.5975 40.197C61.4855 40.129 61.3213 39.9763 61.34 39.9005C61.375 39.7583 61.5029 39.5795 61.6334 39.534C61.8422 39.4612 62.0844 39.4727 62.3127 39.4701C62.8663 39.4639 63.42 39.4633 63.9734 39.4737C64.3159 39.4802 64.688 39.3693 64.9809 39.6295C65.0974 39.733 65.2129 39.9001 65.218 40.0423C65.221 40.1245 65.0122 40.2339 64.8821 40.2964C64.6997 40.3841 64.4245 40.3869 64.3318 40.5231C64.2348 40.6657 64.3084 40.9233 64.3046 41.1306C64.2894 41.9559 64.2748 42.7812 64.2566 43.6064C64.2488 43.9598 64.1141 44.2068 63.7604 44.3649C63.1347 44.6448 62.4802 44.7866 61.8093 44.8591C60.7009 44.9789 59.5968 44.9858 58.526 44.6018C57.719 44.3125 56.954 43.9376 56.3586 43.3092C55.6715 42.584 55.2686 41.7062 55.1287 40.713C55.0922 40.4534 55.0337 40.193 55.0332 39.9328C55.032 39.3062 55.0917 38.6842 55.3304 38.0709C55.3958 38.0179 55.4388 37.9831 55.4537 37.9389C55.5998 37.5033 55.8076 37.1074 56.1286 36.7702C56.2787 36.6125 56.3954 36.4231 56.5272 36.248C56.5272 36.248 56.5285 36.2515 56.5459 36.2511C56.5802 36.2487 56.6007 36.2523 56.6138 36.244C57.0317 35.978 57.4496 35.7119 57.864 35.4406C57.8846 35.4271 57.874 35.366 57.8779 35.3271Z" fill="#9C0000"/>
<path d="M42.9427 37.498C42.9426 38.1115 42.9363 38.6991 42.9443 39.2865C42.9501 39.7065 43.0075 40.1279 42.9851 40.5456C42.9301 41.5695 42.7597 42.5612 42.1331 43.426C41.5437 44.2395 40.7449 44.6969 39.7856 44.9121C38.7397 45.1467 37.7182 45.031 36.7557 44.5898C35.9139 44.204 35.2566 43.6012 34.8986 42.7089C34.6635 42.123 34.5749 41.5247 34.5891 40.8973C34.6065 40.1288 34.5857 39.3595 34.5941 38.5907C34.6016 37.9123 34.6313 37.2342 34.6406 36.5558C34.6431 36.3703 34.6144 36.1833 34.5882 35.9986C34.5444 35.6891 34.2778 35.7323 34.071 35.6846C33.9154 35.6486 33.7558 35.6268 33.6038 35.5799C33.365 35.5062 33.3149 35.2956 33.4773 35.1085C33.6308 34.9317 33.8038 34.8349 34.0549 34.8478C34.6891 34.8804 35.3245 34.8968 35.9596 34.9015C36.3181 34.9041 36.6768 34.8689 37.0356 34.8548C37.1019 34.8522 37.1947 34.8438 37.2309 34.8811C37.3479 35.0018 37.5217 35.1406 37.525 35.2761C37.5278 35.3917 37.3466 35.5726 37.2103 35.6201C36.6132 35.8283 36.5843 35.7506 36.5643 36.5427C36.5441 37.3427 36.53 38.1427 36.5131 38.9427C36.4955 39.7767 36.4579 40.6108 36.4657 41.4445C36.4736 42.2893 36.8019 43.0035 37.5329 43.4588C38.1514 43.844 38.8435 43.9215 39.5571 43.7542C40.503 43.5325 41.0749 42.9309 41.3123 42.0033C41.3623 41.8081 41.3789 41.6005 41.3827 41.398C41.3926 40.8539 41.3933 40.3095 41.3868 39.7653C41.3732 38.6291 41.354 37.4931 41.3326 36.3571C41.3301 36.2232 41.3259 36.0776 41.2724 35.9602C41.23 35.8672 41.1204 35.7905 41.023 35.741C40.9373 35.6974 40.8247 35.7105 40.7286 35.6828C40.538 35.6278 40.2996 35.6049 40.3021 35.3339C40.3045 35.079 40.5559 34.8518 40.8188 34.8563C41.3246 34.865 41.8301 34.8997 42.3357 34.9013C42.7194 34.9026 43.1032 34.8579 43.4871 34.856C43.7304 34.8548 43.955 35.037 43.842 35.3398C43.7303 35.6392 43.5095 35.7283 43.2348 35.7309C43.0071 35.733 42.9358 35.8316 42.94 36.0466C42.9491 36.5216 42.9427 36.9969 42.9427 37.498Z" fill="#9C0000"/>
<path d="M11.0999 46.5817C11.5439 46.4406 11.9789 46.2445 12.4338 46.1698C13.3921 46.0126 14.3474 46.0786 15.2684 46.418C16.1262 46.7341 16.9036 47.1904 17.5081 47.8825C18.0073 48.4541 18.2848 49.1556 18.4565 49.8865C18.5658 50.3519 18.6442 50.8335 18.6581 51.3101C18.6758 51.9123 18.4861 52.4877 18.2568 53.0421C18.0075 53.6449 17.6836 54.2118 17.2243 54.6737C16.6931 55.2078 16.0802 55.6359 15.3539 55.8851C14.7223 56.1018 14.078 56.2376 13.4106 56.2162C12.2889 56.1803 11.2505 55.8512 10.3341 55.2062C10.0002 54.9712 9.74147 54.6293 9.45221 54.3082C9.31342 54.0627 9.14876 53.8563 9.0321 53.6256C8.49341 52.5603 8.16891 51.4506 8.37784 50.238C8.38776 50.1804 8.33323 50.1117 8.30872 50.0482C8.30641 50.0393 8.3041 50.0305 8.3132 50.0001C8.33465 49.9664 8.34263 49.9529 8.34857 49.9382C8.34857 49.9382 8.3484 49.9426 8.36266 49.9333C8.40694 49.8739 8.44331 49.8264 8.46596 49.7732C8.63932 49.3654 8.80462 48.9541 8.98377 48.5489C9.07463 48.3434 9.18897 48.1482 9.29269 47.9484C9.29269 47.9484 9.29615 47.9336 9.32078 47.9352C9.39335 47.8783 9.44129 47.8197 9.48922 47.7612C9.48922 47.7612 9.49031 47.7648 9.50632 47.7619C9.56315 47.7077 9.60396 47.6564 9.64478 47.6051C9.64478 47.6051 9.64575 47.6093 9.65491 47.6019C9.67564 47.5806 9.68722 47.5667 9.6988 47.5527C9.6988 47.5527 9.69885 47.5582 9.70738 47.5505C9.72749 47.5288 9.73908 47.5148 9.75066 47.5009C9.75066 47.5009 9.74996 47.5049 9.76529 47.5024C9.80827 47.4593 9.83593 47.4187 9.86359 47.3781C9.86359 47.3781 9.86647 47.3641 9.89146 47.3663C9.98479 47.3029 10.0531 47.2375 10.1214 47.172C10.1214 47.172 10.1261 47.1555 10.1521 47.1607C10.3915 47.0487 10.6086 46.9377 10.8167 46.8117C10.9197 46.7493 11.006 46.6593 11.0999 46.5817ZM10.1671 51.7797C10.2951 52.2035 10.3625 52.6588 10.5635 53.0447C11.0205 53.9223 11.684 54.608 12.6509 54.945C13.2662 55.1594 13.8826 55.2269 14.519 55.0305C15.1557 54.8341 15.6576 54.4644 16.0576 53.9352C16.5247 53.3171 16.7586 52.6175 16.799 51.8546C16.8357 51.1634 16.754 50.4847 16.5498 49.8169C16.304 49.0133 15.96 48.2819 15.2676 47.7611C14.4991 47.1831 13.6487 46.9431 12.6959 47.1456C11.4828 47.4033 10.7314 48.1618 10.3168 49.311C10.0928 49.9318 10.1098 50.5649 10.1175 51.2025C10.1197 51.3796 10.1496 51.5564 10.1671 51.7797Z" fill="#9C0000"/>
<path d="M68.3517 46.2185C68.8211 46.3364 69.2896 46.4583 69.7603 46.5711C70.1068 46.654 70.1135 46.6843 70.0715 47.0495C70.0296 47.4146 70.0388 47.7853 70.01 48.1523C69.9908 48.3963 69.9631 48.6427 69.9051 48.8798C69.8327 49.1763 69.5192 49.2454 69.3183 49.0105C69.2168 48.892 69.1283 48.7461 69.0843 48.5976C68.8979 47.9687 68.4678 47.6083 67.8658 47.4018C67.3043 47.2092 66.7319 47.0969 66.1409 47.1487C65.2735 47.2249 64.444 47.4454 63.772 48.0294C63.2682 48.4671 63.0154 49.0674 62.8573 49.7071C62.619 50.6715 62.6974 51.6219 63.0905 52.5214C63.4529 53.3504 64.0683 53.9776 64.8413 54.4632C65.4549 54.8486 66.1178 55.0309 66.8239 55.0155C67.2477 55.0062 67.6699 54.8917 68.091 54.8149C68.229 54.7897 68.2725 54.7078 68.2607 54.5469C68.242 54.2935 68.3008 54.0353 68.2938 53.7801C68.281 53.311 68.2446 52.8425 68.2168 52.3739C68.2154 52.3495 68.1986 52.3262 68.1967 52.3018C68.151 51.7166 68.0961 51.755 67.5776 51.614C67.3459 51.551 67.1503 51.4726 67.1135 51.2227C67.0907 51.0685 67.4436 50.8173 67.6699 50.828C68.1459 50.8504 68.6205 50.9088 69.0965 50.9224C69.3658 50.93 69.6373 50.8821 69.907 50.8515C70.22 50.816 70.5419 50.7518 70.8035 50.9889C70.8948 51.0716 71.0033 51.2269 70.9811 51.3197C70.9545 51.4313 70.8063 51.5263 70.6923 51.6C70.6206 51.6464 70.5141 51.6363 70.425 51.6588C70.1828 51.72 70.0571 51.8572 70.0606 52.128C70.0716 52.966 70.0684 53.8043 70.063 54.6424C70.0618 54.8368 70.0475 55.0345 70.0081 55.2242C69.9503 55.5028 69.6977 55.5956 69.4752 55.684C68.8066 55.9498 68.1084 56.0932 67.3924 56.1723C66.4395 56.2774 65.5053 56.2154 64.5867 55.9247C64.5949 55.8993 64.6044 55.8957 64.6082 55.889C64.6119 55.8823 64.6126 55.8659 64.6101 55.8648C64.3869 55.7742 64.1631 55.6851 63.9397 55.5949C63.6456 55.4761 63.3517 55.3565 63.0578 55.2372C63.0578 55.2372 63.0615 55.2371 63.0532 55.2227C62.963 55.1659 62.881 55.1236 62.799 55.0813C62.799 55.0813 62.8027 55.0801 62.7981 55.0643C62.6857 54.9872 62.5778 54.9258 62.4698 54.8645C62.4698 54.8645 62.4536 54.8605 62.4517 54.8383C62.4278 54.8009 62.4058 54.7856 62.3838 54.7703C62.3838 54.7703 62.3875 54.769 62.3834 54.7546C62.3463 54.7156 62.3133 54.691 62.2803 54.6665C62.2803 54.6665 62.284 54.6648 62.281 54.6482C62.1232 54.4529 61.9684 54.2743 61.8137 54.0957C61.8137 54.0957 61.8172 54.0941 61.8164 54.0762C61.6826 53.7803 61.5417 53.5059 61.4182 53.2238C61.0884 52.4708 60.9564 51.6843 60.984 50.8602C61.0289 49.5238 61.4593 48.3737 62.5057 47.495C62.5474 47.46 62.5651 47.3967 62.594 47.3465C62.594 47.3465 62.5955 47.35 62.6132 47.3494C62.7315 47.3034 62.8347 47.2633 62.9319 47.2117C63.2969 47.0181 63.647 46.7899 64.0262 46.6306C65.3392 46.079 66.7099 46.128 68.0878 46.2823C68.1723 46.2918 68.2636 46.2411 68.3517 46.2185Z" fill="#9C0000"/>
<path d="M43.5627 52.5289C43.3091 52.5492 43.0556 52.5695 42.7766 52.5919C42.5872 53.2044 42.3987 53.8099 42.2133 54.4163C42.1741 54.5443 42.1257 54.6743 42.1173 54.8057C42.102 55.0463 42.0572 55.2881 42.3915 55.4062C42.6339 55.4918 42.6322 55.7041 42.4641 55.898C42.2124 56.1882 41.8963 56.178 41.5524 56.1567C41.1279 56.1305 40.6954 56.1138 40.2757 56.1667C39.8444 56.2211 39.4411 56.1055 39.2248 55.7369C39.1893 55.6763 39.2049 55.5141 39.2464 55.4921C39.4418 55.3883 39.6488 55.2697 39.8622 55.2441C40.2717 55.1951 40.4402 54.9566 40.5629 54.5983C40.7988 53.9097 41.0772 53.2357 41.3273 52.5518C41.5942 51.822 41.8319 51.0812 42.1134 50.3572C42.4317 49.5386 42.7864 48.7341 43.1217 47.922C43.3387 47.3964 43.5477 46.8675 43.7635 46.3414C43.8202 46.203 43.8592 46.0458 44.0657 46.0514C44.2762 46.0571 44.419 46.1523 44.5026 46.3402C44.778 46.9596 45.0623 47.5753 45.3239 48.2005C45.698 49.0949 46.0529 49.9973 46.4198 50.8947C46.8146 51.8607 47.2055 52.8283 47.6147 53.7882C47.7848 54.1871 47.9733 54.5833 48.2046 54.9483C48.2855 55.0759 48.5166 55.1155 48.6856 55.1777C48.8104 55.2236 48.965 55.2105 49.0712 55.2785C49.2076 55.3658 49.384 55.4977 49.4022 55.6298C49.418 55.7446 49.2598 55.914 49.1395 56.0106C48.8723 56.2252 48.54 56.1642 48.2265 56.1679C48.1228 56.1691 48.0191 56.1674 47.8834 56.1454C47.4463 56.0274 47.0389 55.9134 46.6217 56.0283C46.3884 56.0926 46.2163 55.9966 46.0525 55.8682C45.8976 55.7467 45.9088 55.5858 46.0797 55.4744C46.2413 55.369 46.2881 55.2263 46.2506 55.0521C46.2181 54.9011 46.1811 54.7485 46.1229 54.606C45.8462 53.9295 45.5686 53.253 45.2714 52.5854C45.2328 52.4986 45.0851 52.4332 44.9771 52.4116C44.8558 52.3872 44.7224 52.4307 44.594 52.4324C44.2753 52.4367 43.9564 52.4318 43.6377 52.4382C43.6121 52.4387 43.5877 52.4973 43.5627 52.5289ZM44.5509 50.8942C44.3504 50.3747 44.1498 49.8552 43.9466 49.3291C43.7045 49.9849 43.4646 50.6348 43.233 51.262C43.7205 51.262 44.205 51.262 44.6979 51.262C44.6486 51.1307 44.6108 51.0299 44.5509 50.8942Z" fill="#9C0000"/>
<path d="M17.8994 42.5834C17.8971 42.6058 17.8949 42.6283 17.872 42.6731C17.7464 43.072 17.6394 43.448 17.5418 43.8264C17.5357 43.8498 17.603 43.8922 17.6361 43.9257C17.7183 43.9837 17.8132 44.03 17.8796 44.1024C17.9681 44.1989 18.1211 44.3551 18.0933 44.416C18.0237 44.5689 17.8904 44.7389 17.7414 44.7979C17.5535 44.8722 17.3248 44.8535 17.1134 44.8562C16.6884 44.8617 16.2632 44.8498 15.8382 44.8541C15.4893 44.8577 15.1324 44.9069 14.8618 44.6068C14.6672 44.3909 14.7015 44.2222 14.972 44.1228C15.1749 44.0482 15.3808 43.9721 15.5921 43.9326C15.8331 43.8874 15.9861 43.7626 16.0667 43.5401C16.4543 42.4701 16.8287 41.3952 17.2306 40.3306C17.6268 39.2812 18.0502 38.2421 18.462 37.1986C18.7564 36.4528 19.0456 35.7048 19.3529 34.9643C19.3974 34.857 19.5161 34.7465 19.6252 34.708C19.7814 34.653 19.9457 34.7157 20.0264 34.8776C20.269 35.3647 20.5231 35.8475 20.7356 36.3477C21.1863 37.4089 21.6156 38.4793 22.0498 39.5474C22.283 40.1209 22.5003 40.701 22.7392 41.2721C22.9853 41.8604 23.2479 42.442 23.506 43.0252C23.5562 43.1387 23.6432 43.2406 23.6722 43.3579C23.7702 43.7547 24.0947 43.8308 24.4177 43.9317C24.6047 43.9902 24.7898 44.073 24.9548 44.1778C25.109 44.2758 25.077 44.4216 24.9715 44.5538C24.7701 44.8059 24.4914 44.8937 24.1869 44.9126C23.9889 44.9249 23.7895 44.9138 23.5596 44.8893C23.2113 44.8124 22.8956 44.7461 22.5764 44.7108C22.3547 44.6863 22.1249 44.7272 21.9055 44.694C21.7976 44.6776 21.6802 44.5756 21.6169 44.4795C21.5883 44.4361 21.658 44.2846 21.7233 44.2306C21.9402 44.0509 21.9474 43.8458 21.857 43.6055C21.566 42.832 21.2844 42.0549 20.9828 41.2857C20.9533 41.2105 20.811 41.137 20.7198 41.1353C20.0386 41.1229 19.3569 41.1231 18.6757 41.1361C18.5877 41.1377 18.5015 41.2356 18.4145 41.2889C18.4145 41.2889 18.4136 41.2853 18.3975 41.2898C18.3032 41.4337 18.2029 41.5655 18.1513 41.7142C18.0527 41.9989 17.9818 42.2931 17.8994 42.5834ZM19.1937 39.1372C19.0773 39.4507 18.9609 39.7642 18.8334 40.1073C19.3666 40.0804 19.8589 40.0555 20.3672 40.0299C20.1094 39.3861 19.8564 38.7545 19.584 38.0742C19.4494 38.4528 19.3337 38.7782 19.1937 39.1372Z" fill="#9C0000"/>
<path d="M59.611 54.8095C59.5746 54.747 59.5567 54.6729 59.5488 54.5684C59.5674 54.5017 59.576 54.4655 59.5846 54.4293C59.5727 54.4272 59.5608 54.4252 59.5489 54.4232C59.5448 54.4683 59.5408 54.5134 59.5367 54.5586C59.4854 54.4308 59.3926 54.3042 59.3891 54.1752C59.3448 52.5301 59.3062 50.8848 59.2824 49.2394C59.2746 48.6976 59.3067 48.1548 59.334 47.6132C59.3478 47.3405 59.513 47.1462 59.7489 47.0331C59.8174 47.0002 59.9326 47.0646 60.0441 47.0894C59.7674 47.2007 59.6072 47.3363 59.6728 47.721C59.7467 48.1545 59.6845 48.611 59.6842 49.0574C59.6838 49.6909 59.6915 50.3245 59.6849 50.9579C59.6805 51.3767 59.6494 51.7952 59.6452 52.2139C59.6433 52.4085 59.6949 52.6037 59.6911 52.798C59.678 53.4648 59.6512 54.1314 59.611 54.8095Z" fill="#9C0000"/>
<path d="M4.35547 35.9639C4.44475 36.0682 4.5771 36.1789 4.62182 36.3177C4.92294 37.2528 5.20853 38.1929 5.49318 39.1333C5.7723 40.0553 6.03821 40.9814 6.3213 41.9023C6.57435 42.7254 6.84286 43.5438 7.1048 44.3642C7.12317 44.4217 7.12968 44.4905 7.16619 44.5331C7.23536 44.6139 7.31889 44.7306 7.40286 44.7362C7.48032 44.7413 7.60324 44.6373 7.64213 44.5522C7.84964 44.0979 8.03546 43.6338 8.23223 43.1745C8.30891 42.9955 8.3946 42.8205 8.49396 42.6391C8.34841 43.0802 8.19278 43.5288 8.01872 43.9702C7.92135 44.2171 7.80033 44.4555 7.67731 44.6912C7.5557 44.9242 7.33199 44.9472 7.17035 44.7386C7.07959 44.6215 6.99807 44.4854 6.9553 44.3447C6.51605 42.9005 6.0869 41.4533 5.65225 40.0077C5.33986 38.9687 5.02856 37.9294 4.70561 36.8937C4.60909 36.5841 4.47491 36.2864 4.35547 35.9639Z" fill="#9C0000"/>
<path d="M9.38867 40.4358C9.4018 40.3417 9.4072 40.224 9.44798 40.1201C9.68419 39.5185 9.9275 38.9197 10.1722 38.3216C10.1994 38.2551 10.2506 38.1985 10.3314 38.0752C10.4737 38.4446 10.5944 38.7519 10.7106 39.061C10.9834 39.7859 11.2538 40.5118 11.5257 41.2371C11.8856 42.1967 12.2454 43.1563 12.6067 44.1153C12.6615 44.2606 12.7162 44.4069 12.7859 44.5451C12.8819 44.7355 13.032 44.7699 13.1766 44.6169C13.2853 44.5019 13.3614 44.3529 13.4374 44.2111C13.5237 44.0499 13.5936 43.88 13.6829 43.7202C13.5943 43.9905 13.5177 44.268 13.3825 44.513C13.3118 44.6411 13.1415 44.7813 13.0096 44.7881C12.8979 44.7938 12.721 44.639 12.669 44.5149C12.3724 43.808 12.1011 43.0902 11.8277 42.3737C11.4207 41.307 11.0187 40.2384 10.6157 39.1702C10.5106 38.8915 10.4094 38.6113 10.2941 38.2983C9.98649 39.0256 9.69189 39.722 9.38867 40.4358Z" fill="#9C0000"/>
<path d="M25.1535 15.6133C25.2922 16.1807 25.4434 16.7455 25.566 17.3164C25.6865 17.8779 25.799 18.4426 25.8773 19.0111C25.9989 19.8939 26.0978 20.7802 26.1887 21.6668C26.256 22.3239 26.3051 22.9834 26.3418 23.643C26.3556 23.8895 26.3115 24.1393 26.2932 24.4115C26.2759 24.1812 26.2619 23.9267 26.2411 23.6728C26.2317 23.5587 26.2087 23.4457 26.2051 23.299C26.2123 23.2214 26.2063 23.1772 26.2003 23.133C26.1281 22.3035 26.0732 21.472 25.9797 20.6449C25.8239 19.2671 25.6285 17.8949 25.2616 16.553C25.1912 16.2952 25.1541 16.0284 25.1035 15.7289C25.1215 15.6659 25.1375 15.6396 25.1535 15.6133Z" fill="#9C0000"/>
<path d="M18.4375 41.2868C18.5014 41.2359 18.5875 41.138 18.6755 41.1364C19.3568 41.1234 20.0384 41.1232 20.7197 41.1356C20.8109 41.1373 20.9532 41.2108 20.9826 41.286C21.2843 42.0552 21.5659 42.8323 21.8568 43.6058C21.9472 43.8461 21.9401 44.0512 21.7231 44.2309C21.6579 44.2849 21.5882 44.4364 21.6168 44.4798C21.6801 44.5759 21.7975 44.6779 21.9054 44.6943C22.1248 44.7275 22.3546 44.6866 22.5762 44.7111C22.8954 44.7463 23.2112 44.8127 23.5361 44.8824C22.9919 44.8691 22.4378 44.8589 21.8896 44.7964C21.7411 44.7795 21.5745 44.6277 21.4884 44.4921C21.4504 44.4321 21.5629 44.2223 21.6588 44.1435C21.8279 44.0047 21.8311 43.8585 21.7662 43.6859C21.5319 43.0628 21.2426 42.4547 21.0733 41.8147C20.9305 41.2752 20.6358 41.1808 20.1511 41.2248C19.5904 41.2756 19.0243 41.2671 18.4375 41.2868Z" fill="#9C0000"/>
<path d="M62.5762 47.3491C62.5659 47.3965 62.5481 47.4599 62.5065 47.4949C61.46 48.3736 61.0297 49.5236 60.9848 50.8601C60.9571 51.6841 61.0892 52.4707 61.4189 53.2237C61.5424 53.5058 61.6834 53.7802 61.8165 54.0779C61.6204 53.7534 61.3919 53.4231 61.235 53.0618C60.9649 52.4401 60.8304 51.7707 60.8448 51.0984C60.8695 49.9464 61.1511 48.8561 61.8927 47.938C62.0757 47.7114 62.334 47.5456 62.5762 47.3491Z" fill="#9C0000"/>
<path d="M43.5879 52.5328C43.5888 52.4974 43.6132 52.4388 43.6388 52.4383C43.9575 52.4319 44.2764 52.4368 44.5952 52.4325C44.7235 52.4308 44.8569 52.3873 44.9783 52.4117C45.0862 52.4333 45.2339 52.4987 45.2726 52.5855C45.5697 53.2531 45.8474 53.9296 46.124 54.6061C46.1822 54.7486 46.2192 54.9012 46.2517 55.0522C46.2893 55.2264 46.2424 55.3691 46.0808 55.4745C45.9099 55.5859 45.8988 55.7468 46.0536 55.8683C46.2174 55.9967 46.3895 56.0927 46.6228 56.0284C47.04 55.9135 47.4474 56.0275 47.8606 56.1415C47.7 56.1448 47.5317 56.123 47.363 56.1178C47.1029 56.11 46.8418 56.125 46.5825 56.1083C46.4095 56.0972 46.2158 56.0887 46.0722 56.0071C45.7853 55.8439 45.6915 55.5738 45.997 55.3822C46.1832 55.2654 46.1837 55.1527 46.1155 54.9818C45.8716 54.3699 45.6345 53.7552 45.392 53.1426C45.315 52.9481 45.2295 52.757 45.1361 52.5366C44.645 52.5366 44.1285 52.5366 43.5879 52.5328Z" fill="#9C0000"/>
<path d="M25.1538 15.5921C25.1378 15.6393 25.1218 15.6656 25.1029 15.7073C24.8414 14.8827 24.6041 14.0351 24.3168 13.2049C24.099 12.5755 23.8199 11.9671 23.5632 11.3515C23.4608 11.1059 23.3451 10.8659 23.2337 10.6039C23.2185 10.5626 23.2049 10.5408 23.1914 10.519C23.5293 10.5956 24.9594 14.2776 25.1538 15.5921Z" fill="#9C0000"/>
<path d="M68.3298 46.2146C68.2635 46.2412 68.1722 46.2918 68.0877 46.2824C66.7098 46.1281 65.3391 46.0791 64.026 46.6306C63.6469 46.7899 63.2968 47.0182 62.9318 47.2118C62.8346 47.2633 62.7314 47.3035 62.6113 47.3489C63.0266 47.091 63.4433 46.7932 63.9007 46.5848C64.549 46.2895 65.2322 46.0871 65.9621 46.1035C66.1723 46.1083 66.3835 46.0727 66.6293 46.0686C66.7086 46.0752 66.7528 46.0689 66.797 46.0625C67.0238 46.0775 67.2506 46.0926 67.512 46.1205C67.5907 46.127 67.6346 46.1207 67.6785 46.1143C67.8883 46.1464 68.0981 46.1786 68.3298 46.2146Z" fill="#9C0000"/>
<path d="M55.1839 49.9746C55.103 49.9384 55.0071 49.8955 54.9371 49.8263C54.3434 49.2391 53.7474 48.6539 53.1662 48.0544C52.7072 47.5809 52.2682 47.0881 51.8164 46.5869C51.8627 46.5967 51.9226 46.6137 51.9614 46.652C52.4039 47.0883 52.8472 47.5241 53.2822 47.9679C53.6753 48.369 54.054 48.7843 54.4477 49.1848C54.658 49.3986 54.889 49.592 55.1051 49.8004C55.144 49.8379 55.1563 49.9032 55.1839 49.9746Z" fill="#9C0000"/>
<path d="M8.30437 50.0698C8.33317 50.1116 8.3877 50.1803 8.37778 50.2378C8.16885 51.4504 8.49335 52.5602 9.03204 53.6254C9.14869 53.8561 9.31336 54.0625 9.44559 54.2919C9.02761 53.9563 8.81744 53.4759 8.62176 53.0036C8.46508 52.6254 8.4035 52.2079 8.29886 51.7688C8.28418 51.6879 8.27036 51.646 8.25654 51.6041C8.23639 51.4627 8.21625 51.3213 8.21076 51.1427C8.21863 50.9944 8.21185 50.8832 8.20508 50.772C8.23674 50.5452 8.26841 50.3184 8.30437 50.0698Z" fill="#9C0000"/>
<path d="M6.78559 34.879C6.34944 35.0716 5.88546 35.0024 5.42488 34.9907C4.9183 34.9778 4.41113 34.952 3.90516 34.9659C3.61591 34.9738 3.47896 35.2896 3.62386 35.5669C3.45968 35.5602 3.33263 35.4694 3.32818 35.2988C3.32348 35.1189 3.62501 34.86 3.81825 34.854C4.01665 34.8479 4.2154 34.8534 4.45627 34.8685C4.81459 34.8756 5.13063 34.8682 5.44668 34.8607C5.88904 34.8603 6.33141 34.86 6.78559 34.879Z" fill="#9C0000"/>
<path d="M49.7364 39.1889C49.6548 39.1513 49.5601 39.1068 49.4886 39.0382C48.9162 38.4887 48.343 37.9397 47.7815 37.3791C47.5884 37.1863 47.4278 36.9609 47.25 36.7324C47.2982 36.742 47.3586 36.7596 47.3978 36.7986C48.1622 37.559 48.9244 38.3217 49.6859 39.0851C49.7082 39.1074 49.7182 39.1419 49.7364 39.1889Z" fill="#9C0000"/>
<path d="M48.4922 40.4243C48.5558 40.4317 48.6435 40.436 48.6928 40.4818C49.1664 40.9222 49.639 41.3642 50.0985 41.8191C50.2014 41.9209 50.2523 42.0752 50.3199 42.2231C49.7079 41.6408 49.1032 41.0406 48.4922 40.4243Z" fill="#9C0000"/>
<path d="M51.0176 42.9482C51.0755 42.9546 51.1632 42.9533 51.2073 42.9966C51.6833 43.4633 52.1529 43.9365 52.6224 44.4099C52.6508 44.4386 52.6632 44.4832 52.6854 44.5383C52.6252 44.5174 52.5525 44.4888 52.5016 44.4382C52.008 43.948 51.5181 43.4541 51.0176 42.9482Z" fill="#9C0000"/>
<path d="M56.5088 36.2505C56.3951 36.423 56.2784 36.6124 56.1283 36.7701C55.8074 37.1073 55.5995 37.5032 55.4534 37.9388C55.4386 37.983 55.3955 38.0178 55.3477 38.0614C55.5025 37.3243 55.9178 36.7382 56.5088 36.2505Z" fill="#9C0000"/>
<path d="M9.28015 47.9585C9.18979 48.1482 9.07545 48.3433 8.98459 48.5488C8.80544 48.954 8.64014 49.3653 8.46678 49.7731C8.44414 49.8263 8.40776 49.8738 8.36133 49.933C8.45253 49.2952 8.74 48.7251 9.09798 48.1857C9.14852 48.1096 9.21024 48.0408 9.28015 47.9585Z" fill="#9C0000"/>
<path d="M57.8586 35.3281C57.8729 35.366 57.8835 35.427 57.8629 35.4405C57.4485 35.7119 57.0306 35.9779 56.6127 36.2439C56.5997 36.2522 56.5791 36.2487 56.543 36.2506C56.858 36.009 57.1911 35.7661 57.527 35.5271C57.6275 35.4556 57.7356 35.3949 57.8586 35.3281Z" fill="#9C0000"/>
<path d="M63.0645 55.2544C63.3512 55.3566 63.645 55.4762 63.9392 55.595C64.1626 55.6852 64.3864 55.7743 64.6096 55.8649C64.6121 55.8659 64.6114 55.8824 64.6077 55.8891C64.6039 55.8958 64.5944 55.8993 64.5752 55.9078C64.0659 55.698 63.5688 55.4848 63.0645 55.2544Z" fill="#9C0000"/>
<path d="M28.4218 52.9255C28.4045 52.8582 28.3699 52.7686 28.3711 52.6795C28.3778 52.2111 28.3935 51.7427 28.4145 51.2539C28.4392 51.5969 28.4639 51.9603 28.4684 52.3239C28.4707 52.5169 28.4379 52.7103 28.4218 52.9255Z" fill="#9C0000"/>
<path d="M55.9453 53.2166C55.9613 53.2034 55.9978 53.1927 56.0103 53.2054C56.311 53.5137 56.6091 53.8244 56.904 54.152C56.5851 53.8562 56.2698 53.543 55.9453 53.2166Z" fill="#9C0000"/>
<path d="M8.58008 42.523C8.59677 42.3799 8.61104 42.2202 8.66885 42.0783C8.77748 41.8116 8.91128 41.5552 9.05125 41.2891C8.91103 41.6939 8.75417 42.1041 8.58008 42.523Z" fill="#9C0000"/>
<path d="M17.6346 43.9037C17.6026 43.8925 17.5353 43.8501 17.5414 43.8267C17.6391 43.4483 17.7461 43.0723 17.8679 42.6899C17.8871 42.6928 17.8893 42.7014 17.8792 42.7311C17.8559 42.7643 17.848 42.7781 17.8429 42.7935C17.773 43.1561 17.7032 43.5187 17.6346 43.9037Z" fill="#9C0000"/>
<path d="M17.916 42.5746C17.9809 42.2934 18.0517 41.9991 18.1504 41.7145C18.2019 41.5658 18.3023 41.434 18.3984 41.2905C18.2554 41.7129 18.0945 42.1393 17.916 42.5746Z" fill="#9C0000"/>
<path d="M53.3359 44.808C53.3679 44.4863 53.4153 44.1564 53.4685 43.8275C53.4751 43.7868 53.5124 43.7511 53.55 43.7168C53.5503 43.973 53.551 44.2277 53.515 44.477C53.4986 44.5901 53.4093 44.6927 53.3359 44.808Z" fill="#9C0000"/>
<path d="M11.0811 46.583C11.0058 46.6594 10.9195 46.7494 10.8165 46.8118C10.6084 46.9378 10.3913 47.0488 10.1602 47.1585C10.4491 46.9621 10.7558 46.7731 11.0811 46.583Z" fill="#9C0000"/>
<path d="M61.8164 54.1143C61.9688 54.2744 62.1236 54.453 62.2805 54.6501C62.1281 54.49 61.9734 54.3114 61.8164 54.1143Z" fill="#9C0000"/>
<path d="M50.6035 42.5336C50.8369 42.5191 50.934 42.6835 50.9955 42.8975C50.8632 42.7922 50.7381 42.6694 50.6035 42.5336Z" fill="#9C0000"/>
<path d="M3.63477 35.6011C3.81153 35.6428 3.99728 35.7019 4.19168 35.7773C4.01481 35.7352 3.82928 35.6768 3.63477 35.6011Z" fill="#9C0000"/>
<path d="M5.4228 34.8576C5.13087 34.8685 4.81483 34.876 4.48047 34.8726C4.77433 34.8592 5.08651 34.8567 5.4228 34.8576Z" fill="#9C0000"/>
<path d="M52.6934 44.5703C52.8204 44.6306 52.9545 44.7074 53.0969 44.8001C52.9702 44.7395 52.8353 44.6632 52.6934 44.5703Z" fill="#9C0000"/>
<path d="M54.5957 51.8662C54.7913 51.8174 54.8436 51.959 54.883 52.1295C54.7877 52.0582 54.6963 51.9687 54.5957 51.8662Z" fill="#9C0000"/>
<path d="M62.4805 54.8779C62.5789 54.9257 62.6869 54.987 62.7986 55.0659C62.6982 55.0195 62.5941 54.9555 62.4805 54.8779Z" fill="#9C0000"/>
<path d="M50.1468 39.5497C50.0514 39.4915 49.9504 39.417 49.8457 39.3257C49.9417 39.3836 50.0414 39.4585 50.1468 39.5497Z" fill="#9C0000"/>
<path d="M55.0117 52.2807C55.1848 52.2171 55.1982 52.3681 55.246 52.4921C55.1689 52.4378 55.0949 52.3655 55.0117 52.2807Z" fill="#9C0000"/>
<path d="M50.3438 42.2729C50.4022 42.3111 50.4692 42.3612 50.5291 42.4297C50.4653 42.3937 50.4089 42.3393 50.3438 42.2729Z" fill="#9C0000"/>
<path d="M57.6055 54.8774C57.6879 54.9429 57.7794 55.0213 57.873 55.1178C57.7883 55.054 57.7014 54.9722 57.6055 54.8774Z" fill="#9C0000"/>
<path d="M10.1088 47.1816C10.0532 47.2376 9.98483 47.303 9.89844 47.3646C9.95232 47.3041 10.0243 47.2477 10.1088 47.1816Z" fill="#9C0000"/>
<path d="M55.4258 52.6953C55.4822 52.7345 55.5473 52.786 55.6094 52.8556C55.5491 52.8183 55.4918 52.7629 55.4258 52.6953Z" fill="#9C0000"/>
<path d="M62.8066 55.0981C62.8817 55.1237 62.9637 55.166 63.0538 55.2247C62.9791 55.199 62.8963 55.1569 62.8066 55.0981Z" fill="#9C0000"/>
<path d="M9.62591 47.6074C9.60333 47.6564 9.56252 47.7077 9.50391 47.7612C9.52663 47.7122 9.56715 47.661 9.62591 47.6074Z" fill="#9C0000"/>
<path d="M55.6328 52.9019C55.6748 52.9238 55.7248 52.9572 55.7683 53.0091C55.7215 52.9895 55.6812 52.9514 55.6328 52.9019Z" fill="#9C0000"/>
<path d="M8.20153 50.7949C8.2114 50.8834 8.21818 50.9946 8.21437 51.1217C8.20201 51.031 8.20023 50.9244 8.20153 50.7949Z" fill="#9C0000"/>
<path d="M56.9297 54.2021C56.9776 54.234 57.0347 54.2779 57.0939 54.3396C57.0436 54.3097 56.9912 54.262 56.9297 54.2021Z" fill="#9C0000"/>
<path d="M9.47435 47.7666C9.44126 47.8197 9.39332 47.8783 9.32812 47.9335C9.36041 47.8774 9.40995 47.8247 9.47435 47.7666Z" fill="#9C0000"/>
<path d="M57.4473 54.7183C57.4867 54.7409 57.5338 54.775 57.5772 54.8258C57.534 54.8049 57.4944 54.7673 57.4473 54.7183Z" fill="#9C0000"/>
<path d="M53.6777 50.9502C53.7153 50.9673 53.7567 50.9984 53.7942 51.0441C53.754 51.0271 53.7178 50.9957 53.6777 50.9502Z" fill="#9C0000"/>
<path d="M4.20312 35.8047C4.24852 35.83 4.29971 35.8706 4.35341 35.9289C4.30693 35.9044 4.25792 35.8622 4.20312 35.8047Z" fill="#9C0000"/>
<path d="M47.041 36.4414C47.0085 36.4174 46.974 36.3762 46.9395 36.3169C46.9726 36.3406 47.0058 36.3824 47.041 36.4414Z" fill="#9C0000"/>
<path d="M53.1113 44.8299C53.1605 44.813 53.2187 44.8127 53.2987 44.8139C53.2538 44.8257 53.1871 44.836 53.1113 44.8299Z" fill="#9C0000"/>
<path d="M55.2676 52.5381C55.2923 52.5453 55.3239 52.5625 55.3507 52.5965C55.3221 52.5915 55.2983 52.5698 55.2676 52.5381Z" fill="#9C0000"/>
<path d="M9.85231 47.3872C9.83632 47.4189 9.80866 47.4595 9.76367 47.5022C9.77778 47.4682 9.80921 47.4321 9.85231 47.3872Z" fill="#9C0000"/>
<path d="M57.291 54.562C57.3143 54.5697 57.3441 54.5874 57.3711 54.6206C57.3446 54.6148 57.3211 54.5934 57.291 54.562Z" fill="#9C0000"/>
<path d="M53.8672 51.1382C53.8906 51.1463 53.9211 51.1646 53.9491 51.1987C53.9225 51.1924 53.8984 51.1704 53.8672 51.1382Z" fill="#9C0000"/>
<path d="M26.1957 23.1519C26.2055 23.1769 26.2115 23.2211 26.2082 23.2767C26.1966 23.2491 26.1942 23.2101 26.1957 23.1519Z" fill="#9C0000"/>
<path d="M67.6592 46.111C67.6344 46.1208 67.5905 46.1271 67.5352 46.1244C67.5625 46.1127 67.6012 46.1101 67.6592 46.111Z" fill="#9C0000"/>
<path d="M55.4875 50.2353C55.4622 50.2403 55.431 50.2304 55.3945 50.209C55.4201 50.2051 55.4509 50.2127 55.4875 50.2353Z" fill="#9C0000"/>
<path d="M57.1875 54.4575C57.2102 54.4657 57.24 54.4835 57.2667 54.5167C57.2406 54.5105 57.2176 54.4888 57.1875 54.4575Z" fill="#9C0000"/>
<path d="M54.3867 51.6572C54.4097 51.6653 54.4396 51.6832 54.4665 51.7167C54.4402 51.7105 54.4169 51.6888 54.3867 51.6572Z" fill="#9C0000"/>
<path d="M8.25391 51.6226C8.27077 51.6463 8.2846 51.6882 8.2982 51.7472C8.28228 51.723 8.26657 51.6819 8.25391 51.6226Z" fill="#9C0000"/>
<path d="M62.2852 54.6812C62.3128 54.6911 62.3458 54.7157 62.3821 54.7565C62.3538 54.7471 62.3222 54.7214 62.2852 54.6812Z" fill="#9C0000"/>
<path d="M54.0234 51.2935C54.0467 51.3016 54.0769 51.3199 54.1045 51.3538C54.078 51.3475 54.0542 51.3255 54.0234 51.2935Z" fill="#9C0000"/>
<path d="M66.7771 46.0593C66.7522 46.0689 66.708 46.0753 66.6523 46.0724C66.6799 46.0607 66.7188 46.0583 66.7771 46.0593Z" fill="#9C0000"/>
<path d="M57.0977 54.3672C57.1167 54.37 57.1392 54.3854 57.1611 54.4153C57.1406 54.4131 57.1208 54.3964 57.0977 54.3672Z" fill="#9C0000"/>
<path d="M62.3867 54.7827C62.4053 54.7857 62.4273 54.801 62.4486 54.8305C62.4286 54.8282 62.4094 54.8116 62.3867 54.7827Z" fill="#9C0000"/>
<path d="M51.7069 46.4552C51.6908 46.4562 51.6704 46.4446 51.6543 46.4243C51.6732 46.4246 51.6879 46.4335 51.7069 46.4552Z" fill="#9C0000"/>
<path d="M55.373 52.6404C55.3842 52.6275 55.3937 52.6308 55.3983 52.6521C55.3871 52.6598 55.3797 52.6552 55.373 52.6404Z" fill="#9C0000"/>
<path d="M57.3965 54.6646C57.407 54.6519 57.4154 54.6544 57.4189 54.6738C57.4169 54.6811 57.3973 54.6704 57.3965 54.6646Z" fill="#9C0000"/>
<path d="M55.7871 53.0553C55.7985 53.0424 55.8083 53.046 55.8134 53.068C55.8022 53.0755 55.7945 53.0706 55.7871 53.0553Z" fill="#9C0000"/>
<path d="M55.8398 53.106C55.8511 53.0934 55.8606 53.0967 55.8651 53.118C55.8539 53.1255 55.8465 53.1209 55.8398 53.106Z" fill="#9C0000"/>
<path d="M55.8926 53.1601C55.9032 53.1474 55.9116 53.1501 55.9152 53.1695C55.9132 53.1769 55.8934 53.166 55.8926 53.1601Z" fill="#9C0000"/>
<path d="M47.2479 36.7053C47.2387 36.7074 47.2247 36.6958 47.2031 36.673C47.2114 36.6716 47.2272 36.6816 47.2479 36.7053Z" fill="#9C0000"/>
<path d="M54.1797 51.4481C54.1907 51.4352 54.2 51.4383 54.2044 51.4593C54.2028 51.4675 54.1812 51.4544 54.1797 51.4481Z" fill="#9C0000"/>
<path d="M57.875 55.1454C57.8843 55.1429 57.8983 55.1538 57.9195 55.176C57.9109 55.1778 57.8953 55.1682 57.875 55.1454Z" fill="#9C0000"/>
<path d="M49.7882 39.2469C49.7791 39.249 49.7654 39.2377 49.7441 39.2155C49.7522 39.2141 49.768 39.2238 49.7882 39.2469Z" fill="#9C0000"/>
<path d="M49.8387 39.2986C49.8296 39.3007 49.816 39.2894 49.7949 39.2672C49.803 39.2659 49.8186 39.2755 49.8387 39.2986Z" fill="#9C0000"/>
<path d="M53.8164 51.0854C53.8273 51.0725 53.8364 51.0755 53.8406 51.096C53.8389 51.104 53.8178 51.0916 53.8164 51.0854Z" fill="#9C0000"/>
<path d="M51.8102 46.5588C51.8013 46.5607 51.7881 46.5492 51.7676 46.5269C51.7755 46.5259 51.7908 46.5357 51.8102 46.5588Z" fill="#9C0000"/>
<path d="M47.0828 36.4993C47.0686 36.5029 47.0584 36.491 47.0449 36.4668C47.0546 36.4661 47.0696 36.4758 47.0828 36.4993Z" fill="#9C0000"/>
<path d="M9.73735 47.5054C9.73965 47.5149 9.72807 47.5288 9.70521 47.5505C9.70378 47.5421 9.71362 47.526 9.73735 47.5054Z" fill="#9C0000"/>
<path d="M9.6846 47.5571C9.6869 47.5666 9.67532 47.5806 9.65248 47.6023C9.65105 47.5939 9.66088 47.5777 9.6846 47.5571Z" fill="#9C0000"/>
<path d="M8.33492 49.9424C8.3423 49.9529 8.33432 49.9663 8.31564 49.9866C8.31187 49.9786 8.31674 49.9626 8.33492 49.9424Z" fill="#9C0000"/>
<path d="M55.2345 50.0339C55.2252 50.036 55.2112 50.0244 55.1895 50.0016C55.1977 50.0003 55.2137 50.0102 55.2345 50.0339Z" fill="#9C0000"/>
<path d="M55.2852 50.0851C55.276 50.0872 55.262 50.0757 55.2402 50.0528C55.2484 50.0516 55.2644 50.0615 55.2852 50.0851Z" fill="#9C0000"/>
<path d="M55.3377 50.1374C55.3285 50.1395 55.3146 50.1279 55.293 50.1051C55.3011 50.1038 55.317 50.1138 55.3377 50.1374Z" fill="#9C0000"/>
<path d="M55.3902 50.1891C55.3811 50.1912 55.3673 50.1796 55.3457 50.1568C55.3538 50.1556 55.3697 50.1656 55.3902 50.1891Z" fill="#9C0000"/>
<path d="M47.1951 36.6535C47.1859 36.6556 47.172 36.6441 47.1504 36.6212C47.1586 36.6199 47.1745 36.6299 47.1951 36.6535Z" fill="#9C0000"/>
<path d="M54.957 52.2254C54.9682 52.2124 54.9778 52.2157 54.9824 52.2372C54.9712 52.2448 54.9638 52.2402 54.957 52.2254Z" fill="#9C0000"/>
<path d="M53.9727 51.2393C53.984 51.2266 53.9936 51.2301 53.9982 51.2516C53.987 51.2591 53.9795 51.2543 53.9727 51.2393Z" fill="#9C0000"/>
<path d="M17.8566 42.7885C17.8486 42.7778 17.8566 42.764 17.8762 42.7437C17.8798 42.7515 17.8748 42.7676 17.8566 42.7885Z" fill="#9C0000"/>
<path d="M54.1289 51.3963C54.1399 51.3835 54.1492 51.3866 54.1536 51.4075C54.152 51.4157 54.1304 51.4026 54.1289 51.3963Z" fill="#9C0000"/>
<path d="M47.144 36.6016C47.1348 36.6034 47.1209 36.5917 47.0996 36.5684C47.1078 36.5673 47.1235 36.5776 47.144 36.6016Z" fill="#9C0000"/>
<path d="M54.2324 51.4998C54.2435 51.487 54.2528 51.4901 54.2572 51.5111C54.2556 51.5193 54.2339 51.5062 54.2324 51.4998Z" fill="#9C0000"/>
<path d="M54.2832 51.5516C54.2942 51.5388 54.3032 51.5418 54.3074 51.5624C54.3057 51.5704 54.2845 51.5579 54.2832 51.5516Z" fill="#9C0000"/>
<path d="M54.3359 51.604C54.3466 51.5912 54.3553 51.5939 54.3591 51.6138C54.3572 51.6214 54.3369 51.61 54.3359 51.604Z" fill="#9C0000"/>
<path d="M8.52203 42.6331C8.51505 42.6231 8.52305 42.6097 8.5415 42.5894C8.54496 42.597 8.53998 42.6128 8.52203 42.6331Z" fill="#9C0000"/>
<path d="M54.4922 51.7604C54.503 51.7472 54.5122 51.7501 54.5165 51.7709C54.5149 51.779 54.4936 51.7666 54.4922 51.7604Z" fill="#9C0000"/>
<path d="M54.543 51.8102C54.5543 51.7973 54.5641 51.8008 54.569 51.8228C54.5577 51.8302 54.5501 51.8254 54.543 51.8102Z" fill="#9C0000"/>
<path d="M50.5508 42.4776C50.5614 42.4652 50.5703 42.4682 50.5744 42.4885C50.5727 42.4963 50.5523 42.4836 50.5508 42.4776Z" fill="#9C0000"/>
<path d="M54.9062 52.1742C54.9173 52.1613 54.9266 52.1644 54.9311 52.1854C54.9295 52.1937 54.9078 52.1806 54.9062 52.1742Z" fill="#9C0000"/>
<path d="M58.2356 52.958C58.2571 52.9785 58.2691 53.009 58.2812 53.0395C58.2637 53.0301 58.2462 53.0208 58.2182 52.9999C58.2138 52.9815 58.2199 52.9747 58.2356 52.958Z" fill="#9C0000"/>
<path d="M59.5352 54.5592C59.5388 54.5136 59.5428 54.4685 59.5469 54.4233C59.5588 54.4254 59.5707 54.4274 59.5826 54.4294C59.574 54.4657 59.5654 54.5019 59.5467 54.5492C59.5367 54.5603 59.5356 54.5596 59.5352 54.5592Z" fill="#9C0000"/>
</svg>
