<svg width="24" height="21" viewBox="0 0 24 21" fill="none" xmlns="http://www.w3.org/2000/svg">
<path fill-rule="evenodd" clip-rule="evenodd" d="M19.2 1.16667V4.66667H22.8C23.1183 4.66667 23.4235 4.78958 23.6485 5.00838C23.8736 5.22717 24 5.52391 24 5.83333V17.5C24 18.4283 23.6207 19.3185 22.9456 19.9749C22.2705 20.6313 21.3548 21 20.4 21H3.6C2.64522 21 1.72955 20.6313 1.05442 19.9749C0.379285 19.3185 0 18.4283 0 17.5V1.16667C0 0.857247 0.126428 0.560501 0.351472 0.341709C0.576515 0.122916 0.88174 0 1.2 0H18C18.3183 0 18.6235 0.122916 18.8485 0.341709C19.0736 0.560501 19.2 0.857247 19.2 1.16667ZM21.6 17.5C21.6 17.8094 21.4736 18.1062 21.2485 18.325C21.0235 18.5438 20.7183 18.6667 20.4 18.6667C20.0817 18.6667 19.7765 18.5438 19.5515 18.325C19.3264 18.1062 19.2 17.8094 19.2 17.5V7H21.6V17.5ZM4.8 5.83333C4.8 5.52391 4.92643 5.22717 5.15147 5.00838C5.37652 4.78958 5.68174 4.66667 6 4.66667H13.2C13.5183 4.66667 13.8235 4.78958 14.0485 5.00838C14.2736 5.22717 14.4 5.52391 14.4 5.83333C14.4 6.14275 14.2736 6.4395 14.0485 6.65829C13.8235 6.87708 13.5183 7 13.2 7H6C5.68174 7 5.37652 6.87708 5.15147 6.65829C4.92643 6.4395 4.8 6.14275 4.8 5.83333ZM7.2 10.5C7.2 10.1906 7.32643 9.89383 7.55147 9.67504C7.77652 9.45625 8.08174 9.33333 8.4 9.33333H13.2C13.5183 9.33333 13.8235 9.45625 14.0485 9.67504C14.2736 9.89383 14.4 10.1906 14.4 10.5C14.4 10.8094 14.2736 11.1062 14.0485 11.325C13.8235 11.5437 13.5183 11.6667 13.2 11.6667H8.4C8.08174 11.6667 7.77652 11.5437 7.55147 11.325C7.32643 11.1062 7.2 10.8094 7.2 10.5Z" fill="#A25C67"/>
</svg>
