<svg width="21" height="20" viewBox="0 0 21 20" fill="none" xmlns="http://www.w3.org/2000/svg">
<path d="M11.9795 0.282544C11.0307 -0.0941813 9.96934 -0.0941813 9.02055 0.282544L6.72105 1.19567L16.7927 5.03119L20.3354 3.69132C20.1897 3.57399 20.0269 3.47867 19.8523 3.40854L11.9795 0.282544ZM21 5.09288L11.2875 8.76799V20C11.5227 19.9534 11.7534 19.8852 11.9795 19.7954L19.8523 16.6694C20.1915 16.5348 20.4819 16.3042 20.6863 16.0071C20.8908 15.71 21 15.3598 21 15.0015V5.09288ZM9.7125 20V8.76799L0 5.09288V15.0025C0.000206869 15.3607 0.10953 15.7106 0.313978 16.0075C0.518427 16.3045 0.8087 16.5349 1.14765 16.6694L9.02055 19.7954C9.24665 19.8845 9.4773 19.952 9.7125 20ZM0.66465 3.69132L10.5 7.4127L14.6128 5.85587L4.5927 2.04092L1.14765 3.40854C0.96845 3.47984 0.80745 3.5741 0.66465 3.69132Z" fill="#FFB835"/>
</svg>
