<svg width="50" height="50" viewBox="0 0 50 50" fill="none" xmlns="http://www.w3.org/2000/svg">
<rect width="50" height="50" rx="25" fill="#9C0000"/>
<path d="M17.9515 35.3918C17.5977 35.531 17.2671 35.4966 16.9597 35.2887C16.6524 35.0808 16.4991 34.7925 16.5 34.424V29.3579C16.5 29.0108 16.5828 28.6809 16.7483 28.3682C16.9138 28.0563 17.1489 27.8071 17.4536 27.6207L19.0247 26.6116C19.1779 28.1031 19.3754 29.4 19.6171 30.5023C19.8588 31.6046 20.2568 32.862 20.8111 34.2745L17.9515 35.3918ZM22.6277 33.6726C22.3711 33.6726 22.1588 33.5884 21.9907 33.42C21.8225 33.2516 21.692 33.0523 21.5992 32.822C21.1263 31.5058 20.7682 30.2892 20.5247 29.1723C20.283 28.0563 20.1622 26.7976 20.1622 25.3963C20.1622 23.3051 20.4906 21.3763 21.1474 19.6099C21.8041 17.8434 22.8375 16.2415 24.2473 14.8041C24.3437 14.6925 24.4601 14.6138 24.5967 14.5683C24.7325 14.5228 24.8708 14.5 25.0118 14.5C25.1528 14.5 25.2912 14.5228 25.4269 14.5683C25.5626 14.6138 25.6795 14.6925 25.7776 14.8041C27.1875 16.2407 28.2208 17.8421 28.8776 19.6086C29.5344 21.375 29.8628 23.3047 29.8628 25.3976C29.8628 26.8195 29.7454 28.079 29.5107 29.1762C29.2761 30.2733 28.9139 31.4886 28.4244 32.822C28.3316 33.0523 28.2011 33.2516 28.033 33.42C27.8649 33.5884 27.6529 33.6726 27.3972 33.6726H22.6277ZM25.0118 25.5432C25.5661 25.5432 26.0329 25.3568 26.4121 24.9839C26.7921 24.6119 26.9822 24.154 26.9822 23.6101C26.9822 23.0663 26.7921 22.6083 26.4121 22.2363C26.032 21.8643 25.5653 21.6779 25.0118 21.677C24.4584 21.6761 23.9916 21.8626 23.6116 22.2363C23.2315 22.6083 23.0415 23.0663 23.0415 23.6101C23.0415 24.154 23.2315 24.6119 23.6116 24.9839C23.9916 25.3559 24.4584 25.5424 25.0118 25.5432ZM32.0472 35.4176L29.1876 34.2989C29.7419 32.8865 30.1399 31.6252 30.3816 30.5152C30.6233 29.4052 30.8204 28.1035 30.9727 26.6103L32.545 27.6452C32.8498 27.8316 33.0849 28.0808 33.2504 28.3926C33.4168 28.7054 33.5 29.0353 33.5 29.3824V34.4472C33.5 34.8166 33.3463 35.1053 33.0389 35.3132C32.7316 35.5211 32.401 35.5555 32.0472 35.4163" fill="#FFB835"/>
</svg>
