<svg width="16" height="20" viewBox="0 0 16 20" fill="none" xmlns="http://www.w3.org/2000/svg">
<path d="M6.32444 18.7368C6.86311 19.187 7.42489 19.5985 8 20C8.57635 19.6038 9.1354 19.1823 9.67556 18.7368C10.576 17.988 11.4234 17.176 12.2116 16.3068C14.0284 14.2946 16 11.3775 16 8.103C16 7.0389 15.7931 5.98522 15.391 5.00211C14.989 4.01901 14.3997 3.12575 13.6569 2.37331C12.914 1.62088 12.0321 1.02402 11.0615 0.616804C10.0909 0.20959 9.05058 0 8 0C6.94943 0 5.90914 0.20959 4.93853 0.616804C3.96793 1.02402 3.08601 1.62088 2.34315 2.37331C1.60028 3.12575 1.011 4.01901 0.608964 5.00211C0.206926 5.98522 -1.56548e-08 7.0389 0 8.103C0 11.3775 1.97156 14.2937 3.78844 16.3068C4.57655 17.1763 5.42397 17.9877 6.32444 18.7368ZM8 11.0291C7.23382 11.0291 6.49902 10.7208 5.95725 10.1721C5.41548 9.6233 5.11111 8.87904 5.11111 8.103C5.11111 7.32695 5.41548 6.58269 5.95725 6.03395C6.49902 5.4852 7.23382 5.17692 8 5.17692C8.76618 5.17692 9.50098 5.4852 10.0428 6.03395C10.5845 6.58269 10.8889 7.32695 10.8889 8.103C10.8889 8.87904 10.5845 9.6233 10.0428 10.1721C9.50098 10.7208 8.76618 11.0291 8 11.0291Z" fill="#FFB835"/>
</svg>
