<svg width="50" height="50" viewBox="0 0 50 50" fill="none" xmlns="http://www.w3.org/2000/svg">
<rect width="50" height="50" rx="25" fill="#9C0000"/>
<path d="M24.4031 19.661L20.7594 23.711C20.6156 23.8704 20.6219 24.1173 20.775 24.2704C21.7281 25.2235 23.275 25.2235 24.2281 24.2704L25.2219 23.2767C25.3531 23.1454 25.5188 23.0735 25.6875 23.061C25.9 23.0423 26.1187 23.1142 26.2812 23.2767L31.8 28.7485L34 26.9985V17.9985L30.5 19.9985L29.7563 19.5017C29.2628 19.1734 28.6833 18.9984 28.0906 18.9985H25.8906C25.8562 18.9985 25.8188 18.9985 25.7844 19.0017C25.2563 19.0298 24.7594 19.2673 24.4031 19.661ZM19.6437 22.7079L22.9812 18.9985H21.7438C20.9469 18.9985 20.1844 19.3142 19.6219 19.8767L19.5 19.9985L16 17.9985V26.9985L20.8875 31.0704C21.6062 31.6704 22.5125 31.9985 23.4469 31.9985H23.9375L23.7188 31.7798C23.425 31.486 23.425 31.011 23.7188 30.7204C24.0125 30.4298 24.4875 30.4267 24.7781 30.7204L26.0594 32.0017H26.3406C26.9375 32.0017 27.5219 31.8673 28.0531 31.6173L27.2188 30.7798C26.925 30.486 26.925 30.011 27.2188 29.7204C27.5125 29.4298 27.9875 29.4267 28.2781 29.7204L29.2781 30.7204L29.825 30.1735C30.1031 29.8954 30.1844 29.4923 30.0625 29.1392L25.7531 24.8642L25.2875 25.3298C23.7469 26.8704 21.2531 26.8704 19.7125 25.3298C18.9938 24.611 18.9656 23.4579 19.6437 22.7048V22.7079Z" fill="#FFB835"/>
</svg>
