<svg width="50" height="50" viewBox="0 0 50 50" fill="none" xmlns="http://www.w3.org/2000/svg">
<rect width="50" height="50" rx="25" fill="#9C0000"/>
<path fill-rule="evenodd" clip-rule="evenodd" d="M22.6214 16.8359C20.9719 17.3144 19.5055 18.277 18.4135 19.598C17.3216 20.919 16.6547 22.5371 16.5 24.2412H20.4013C20.6287 21.648 21.3837 19.128 22.6202 16.8347M20.4013 25.7589H16.5C16.6544 27.463 17.321 29.0813 18.4127 30.4025C19.5045 31.7237 20.9707 32.6865 22.6202 33.1653C21.3837 30.872 20.6287 28.352 20.4013 25.7589ZM24.5757 33.4895C23.0976 31.1548 22.1913 28.5067 21.9301 25.7589H28.0686C27.8074 28.5067 26.9012 31.1548 25.423 33.4895C25.1408 33.5035 24.858 33.5035 24.5757 33.4895ZM27.3798 33.1641C29.0291 32.6854 30.4952 31.7227 31.587 30.4018C32.6787 29.0808 33.3454 27.4628 33.5 25.7589H29.5987C29.3713 28.352 28.6163 30.872 27.3798 33.1653M29.5987 24.2424H33.5C33.3456 22.5382 32.679 20.92 31.5873 19.5988C30.4955 18.2775 29.0293 17.3147 27.3798 16.8359C28.6163 19.1292 29.3713 21.6492 29.5987 24.2424ZM24.5757 16.5105C24.8584 16.4965 25.1416 16.4965 25.4243 16.5105C26.902 18.8453 27.8078 21.4935 28.0686 24.2412H21.9314C22.1959 21.4765 23.1042 18.8259 24.5757 16.5105Z" fill="#FFB835"/>
</svg>
