<svg width="19" height="20" viewBox="0 0 19 20" fill="none" xmlns="http://www.w3.org/2000/svg">
<path d="M1.13003 1.65575C0.945774 2.01591 0.855172 2.46211 0.673969 3.35251L0.0652071 6.34385C-0.0210692 6.75171 -0.0217375 7.17259 0.0632433 7.58071C0.148224 7.98883 0.317066 8.37561 0.559432 8.71738C0.801798 9.05914 1.11259 9.3487 1.47278 9.56832C1.83297 9.78795 2.23498 9.93301 2.6542 9.99465C3.07342 10.0563 3.50103 10.0332 3.91085 9.92676C4.32067 9.82034 4.70408 9.63284 5.0376 9.37574C5.37113 9.11864 5.64775 8.79735 5.85054 8.43153C6.05333 8.06572 6.17801 7.66308 6.21696 7.24826L6.28822 6.55795C6.24964 6.99699 6.30467 7.4391 6.4498 7.85605C6.59493 8.273 6.82697 8.65562 7.13108 8.97945C7.43519 9.30328 7.8047 9.5612 8.21598 9.73674C8.62727 9.91229 9.07129 10.0016 9.51969 9.99893C9.96808 9.99627 10.411 9.90172 10.8201 9.72133C11.2292 9.54093 11.5955 9.27864 11.8956 8.95124C12.1957 8.62383 12.4231 8.2385 12.5631 7.81986C12.7031 7.40122 12.7527 6.95848 12.7087 6.51993L12.783 7.24826C12.822 7.66308 12.9467 8.06572 13.1495 8.43153C13.3523 8.79735 13.6289 9.11864 13.9624 9.37574C14.2959 9.63284 14.6793 9.82034 15.0892 9.92676C15.499 10.0332 15.9266 10.0563 16.3458 9.99465C16.765 9.93301 17.167 9.78795 17.5272 9.56832C17.8874 9.3487 18.1982 9.05914 18.4406 8.71738C18.6829 8.37561 18.8518 7.98883 18.9368 7.58071C19.0217 7.17259 19.0211 6.75171 18.9348 6.34385L18.326 3.35251C18.1448 2.46211 18.0542 2.01691 17.87 1.65575C17.678 1.27961 17.4077 0.947363 17.0765 0.680557C16.7454 0.413751 16.3609 0.218354 15.948 0.107048C15.551 1.11809e-07 15.0888 0 14.1645 0H4.83554C3.9112 0 3.44903 1.11809e-07 3.05201 0.107048C2.63908 0.218354 2.25457 0.413751 1.92346 0.680557C1.59235 0.947363 1.32202 1.27961 1.13003 1.65575ZM15.8818 11.5052C16.6772 11.5072 17.4596 11.3069 18.153 10.9239V12.0054C18.153 15.7781 18.153 17.6649 16.9599 18.8365C15.9999 19.7809 14.5696 19.964 12.045 20V16.5074C12.045 15.572 12.045 15.1048 11.8404 14.7566C11.7064 14.5285 11.5136 14.3391 11.2815 14.2074C10.9272 14.0063 10.4518 14.0063 9.5 14.0063C8.54817 14.0063 8.07277 14.0063 7.71851 14.2074C7.48639 14.3391 7.29364 14.5285 7.15963 14.7566C6.95501 15.1048 6.95501 15.572 6.95501 16.5074V20C4.43038 19.964 3.00009 19.7799 2.04012 18.8365C0.847028 17.6649 0.847028 15.7781 0.847028 12.0054V10.9239C1.5407 11.3071 2.32346 11.5073 3.1192 11.5052C4.29563 11.5059 5.42827 11.0667 6.2872 10.2766C7.1624 11.0693 8.30982 11.5081 9.5 11.5052C10.6902 11.5081 11.8376 11.0693 12.7128 10.2766C13.5717 11.0667 14.7054 11.5059 15.8818 11.5052Z" fill="#FFB835"/>
</svg>
