<svg width="50" height="50" viewBox="0 0 50 50" fill="none" xmlns="http://www.w3.org/2000/svg">
<rect width="50" height="50" rx="25" fill="#9C0000"/>
<path d="M19 35C18.45 35 17.9793 34.8043 17.588 34.413C17.1967 34.0217 17.0007 33.5507 17 33V17C17 16.45 17.196 15.9793 17.588 15.588C17.98 15.1967 18.4507 15.0007 19 15H31C31.55 15 32.021 15.196 32.413 15.588C32.805 15.98 33.0007 16.4507 33 17V33C33 33.55 32.8043 34.021 32.413 34.413C32.0217 34.805 31.5507 35.0007 31 35H19ZM24 24L26.5 22.5L29 24V17H24V24Z" fill="#FFB835"/>
</svg>
