<svg width="38" height="45" viewBox="0 0 38 45" fill="none" xmlns="http://www.w3.org/2000/svg">
<path d="M13.5714 34.1517H24.4286C25.9214 34.1517 27.1429 32.9313 27.1429 31.4396V17.8792H31.4586C33.8743 17.8792 35.0957 14.9502 33.3857 13.2416L20.9271 0.793131C20.676 0.541712 20.3778 0.342245 20.0494 0.206149C19.7211 0.0700529 19.3691 0 19.0136 0C18.6581 0 18.3061 0.0700529 17.9777 0.206149C17.6494 0.342245 17.3511 0.541712 17.1 0.793131L4.64143 13.2416C2.93143 14.9502 4.12571 17.8792 6.54143 17.8792H10.8571V31.4396C10.8571 32.9313 12.0786 34.1517 13.5714 34.1517ZM2.71429 39.5758H35.2857C36.7786 39.5758 38 40.7963 38 42.2879C38 43.7796 36.7786 45 35.2857 45H2.71429C1.22143 45 0 43.7796 0 42.2879C0 40.7963 1.22143 39.5758 2.71429 39.5758Z" fill="#9C0000"/>
</svg>
